<?xml version="1.0" encoding="UTF-8"?>
<svg xmlns="http://www.w3.org/2000/svg" xmlns:xlink="http://www.w3.org/1999/xlink" width="8px" height="39px" viewBox="0 0 8 38" version="1.1">
<g id="surface1">
<path style="fill:none;stroke-width:2;stroke-linecap:butt;stroke-linejoin:miter;stroke:rgb(27.058824%,57.254902%,15.686275%);stroke-opacity:1;stroke-miterlimit:4;" d="M 82.822266 0.970806 L 82.983398 60.998972 " transform="matrix(0.0242424,0,0,0.0241423,0,0)"/>
<path style="fill:none;stroke-width:2;stroke-linecap:butt;stroke-linejoin:miter;stroke:rgb(43.137255%,75.294118%,31.764706%);stroke-opacity:1;stroke-miterlimit:4;" d="M 82.983398 60.998972 L 82.983398 121.188939 C 82.983398 121.674342 83.305664 121.997944 83.789062 121.997944 L 123.266602 121.997944 C 123.588867 121.997944 123.911133 121.674342 123.911133 121.35074 L 123.75 60.998972 " transform="matrix(0.0242424,0,0,0.0241423,0,0)"/>
<path style="fill:none;stroke-width:2;stroke-linecap:butt;stroke-linejoin:miter;stroke:rgb(27.058824%,57.254902%,15.686275%);stroke-opacity:1;stroke-miterlimit:4;" d="M 123.75 60.998972 L 124.072266 0.970806 " transform="matrix(0.0242424,0,0,0.0241423,0,0)"/>
<path style="fill:none;stroke-width:2;stroke-linecap:butt;stroke-linejoin:miter;stroke:rgb(43.137255%,75.294118%,31.764706%);stroke-opacity:1;stroke-miterlimit:4;" d="M 165 0.970806 L 165 60.513569 C 165 60.837171 165.161133 60.998972 165.483398 60.998972 L 205.927734 60.998972 " transform="matrix(0.0242424,0,0,0.0241423,0,0)"/>
<path style="fill:none;stroke-width:2;stroke-linecap:butt;stroke-linejoin:miter;stroke:rgb(27.058824%,57.254902%,15.686275%);stroke-opacity:1;stroke-miterlimit:4;" d="M 205.927734 60.998972 L 246.533203 60.998972 C 246.855469 60.998972 247.016602 60.837171 247.016602 60.513569 L 247.016602 0.970806 " transform="matrix(0.0242424,0,0,0.0241423,0,0)"/>
<path style="fill:none;stroke-width:2;stroke-linecap:butt;stroke-linejoin:miter;stroke:rgb(27.058824%,57.254902%,15.686275%);stroke-opacity:1;stroke-miterlimit:4;" d="M 330 243.025082 L 289.394531 243.025082 C 289.233398 243.025082 289.072266 243.186883 289.072266 243.510485 L 289.072266 302.567845 C 289.072266 302.729646 289.233398 302.891447 289.394531 302.891447 L 330 302.891447 " transform="matrix(0.0242424,0,0,0.0241423,0,0)"/>
<path style="fill:none;stroke-width:2;stroke-linecap:butt;stroke-linejoin:miter;stroke:rgb(43.137255%,75.294118%,31.764706%);stroke-opacity:1;stroke-miterlimit:4;" d="M 330 423.918586 L 289.716797 423.918586 C 289.233398 423.918586 289.072266 424.242188 289.072266 424.565789 L 289.072266 484.917558 " transform="matrix(0.0242424,0,0,0.0241423,0,0)"/>
<path style="fill:none;stroke-width:2;stroke-linecap:butt;stroke-linejoin:miter;stroke:rgb(65.490196%,82.745098%,59.215686%);stroke-opacity:1;stroke-miterlimit:4;" d="M 289.072266 484.917558 L 206.088867 484.917558 " transform="matrix(0.0242424,0,0,0.0241423,0,0)"/>
<path style="fill:none;stroke-width:2;stroke-linecap:butt;stroke-linejoin:miter;stroke:rgb(27.058824%,57.254902%,15.686275%);stroke-opacity:1;stroke-miterlimit:4;" d="M 206.088867 484.917558 L 206.088867 424.403988 C 206.088867 424.242188 205.927734 424.080387 205.605469 424.080387 L 165.805664 424.080387 C 165.322266 424.080387 165 424.403988 165 424.72759 L 164.677734 484.917558 " transform="matrix(0.0242424,0,0,0.0241423,0,0)"/>
<path style="fill:none;stroke-width:2;stroke-linecap:butt;stroke-linejoin:miter;stroke:rgb(65.490196%,82.745098%,59.215686%);stroke-opacity:1;stroke-miterlimit:4;" d="M 164.677734 484.917558 L 0 484.917558 " transform="matrix(0.0242424,0,0,0.0241423,0,0)"/>
<path style="fill:none;stroke-width:2;stroke-linecap:butt;stroke-linejoin:miter;stroke:rgb(27.058824%,57.254902%,15.686275%);stroke-opacity:1;stroke-miterlimit:4;" d="M 0 303.053248 L 40.605469 303.053248 C 40.766602 303.053248 40.927734 302.891447 40.927734 302.729646 L 41.25 243.025082 " transform="matrix(0.0242424,0,0,0.0241423,0,0)"/>
<path style="fill:none;stroke-width:2;stroke-linecap:butt;stroke-linejoin:miter;stroke:rgb(43.137255%,75.294118%,31.764706%);stroke-opacity:1;stroke-miterlimit:4;" d="M 41.25 243.025082 L 82.983398 243.025082 " transform="matrix(0.0242424,0,0,0.0241423,0,0)"/>
<path style="fill:none;stroke-width:2;stroke-linecap:butt;stroke-linejoin:miter;stroke:rgb(27.058824%,57.254902%,15.686275%);stroke-opacity:1;stroke-miterlimit:4;" d="M 82.983398 243.025082 L 124.072266 242.863281 " transform="matrix(0.0242424,0,0,0.0241423,0,0)"/>
<path style="fill:none;stroke-width:2;stroke-linecap:butt;stroke-linejoin:miter;stroke:rgb(43.137255%,75.294118%,31.764706%);stroke-opacity:1;stroke-miterlimit:4;" d="M 124.072266 242.863281 L 164.677734 243.025082 C 164.838867 243.025082 164.838867 243.025082 164.838867 242.863281 C 165 242.863281 165 242.863281 165 242.70148 L 165 182.349712 C 165 182.187911 164.838867 182.02611 164.677734 182.02611 L 124.072266 182.02611 " transform="matrix(0.0242424,0,0,0.0241423,0,0)"/>
<path style="fill:none;stroke-width:2;stroke-linecap:butt;stroke-linejoin:miter;stroke:rgb(27.058824%,57.254902%,15.686275%);stroke-opacity:1;stroke-miterlimit:4;" d="M 124.072266 182.02611 L 82.983398 182.02611 " transform="matrix(0.0242424,0,0,0.0241423,0,0)"/>
<path style="fill:none;stroke-width:2;stroke-linecap:butt;stroke-linejoin:miter;stroke:rgb(43.137255%,75.294118%,31.764706%);stroke-opacity:1;stroke-miterlimit:4;" d="M 82.983398 182.02611 L 41.572266 182.02611 C 41.25 182.02611 40.927734 182.349712 40.927734 182.511513 L 40.927734 242.863281 " transform="matrix(0.0242424,0,0,0.0241423,0,0)"/>
<path style="fill:none;stroke-width:2;stroke-linecap:butt;stroke-linejoin:miter;stroke:rgb(27.058824%,57.254902%,15.686275%);stroke-opacity:1;stroke-miterlimit:4;" d="M 40.927734 242.863281 L 0 242.863281 " transform="matrix(0.0242424,0,0,0.0241423,0,0)"/>
<path style="fill:none;stroke-width:2;stroke-linecap:butt;stroke-linejoin:miter;stroke:rgb(27.058824%,57.254902%,15.686275%);stroke-opacity:1;stroke-miterlimit:4;" d="M 0 121.997944 L 40.12207 121.997944 C 40.766602 121.997944 40.927734 121.674342 40.927734 121.188939 L 40.927734 61.484375 C 40.927734 61.160773 40.766602 60.998972 40.444336 60.998972 L 0 60.998972 " transform="matrix(0.0242424,0,0,0.0241423,0,0)"/>
<path style="fill:none;stroke-width:2;stroke-linecap:butt;stroke-linejoin:miter;stroke:rgb(27.058824%,57.254902%,15.686275%);stroke-opacity:1;stroke-miterlimit:4;" d="M 288.911133 61.646176 C 288.911133 61.322574 288.588867 60.998972 288.266602 60.998972 L 247.661133 60.998972 C 247.338867 60.998972 247.016602 61.322574 247.016602 61.646176 L 247.177734 121.35074 C 247.177734 121.674342 247.5 121.997944 247.822266 121.997944 L 288.427734 121.836143 C 288.75 121.836143 289.072266 121.674342 289.072266 121.188939 L 288.911133 61.646176 " transform="matrix(0.0242424,0,0,0.0241423,0,0)"/>
<path style="fill:none;stroke-width:2;stroke-linecap:butt;stroke-linejoin:miter;stroke:rgb(27.058824%,57.254902%,15.686275%);stroke-opacity:1;stroke-miterlimit:4;" d="M 205.927734 122.645148 C 205.927734 122.321546 205.605469 121.997944 205.283203 121.997944 L 165.644531 121.997944 C 165.322266 121.997944 165 122.321546 165 122.645148 L 165 181.378906 C 165 181.702508 165.322266 182.02611 165.644531 182.02611 L 205.283203 182.02611 C 205.605469 182.02611 205.927734 181.702508 205.927734 181.378906 L 205.927734 122.645148 " transform="matrix(0.0242424,0,0,0.0241423,0,0)"/>
<path style="fill:none;stroke-width:2;stroke-linecap:butt;stroke-linejoin:miter;stroke:rgb(43.137255%,75.294118%,31.764706%);stroke-opacity:1;stroke-miterlimit:4;" d="M 289.072266 182.511513 C 289.072266 182.187911 288.75 182.02611 288.427734 182.02611 L 247.5 182.02611 C 247.177734 182.02611 247.016602 182.187911 247.016602 182.511513 L 247.016602 242.539679 C 247.016602 242.70148 247.177734 243.025082 247.5 243.025082 L 288.427734 243.025082 C 288.75 243.025082 289.072266 242.70148 289.072266 242.539679 L 289.072266 182.511513 " transform="matrix(0.0242424,0,0,0.0241423,0,0)"/>
<path style="fill:none;stroke-width:2;stroke-linecap:butt;stroke-linejoin:miter;stroke:rgb(27.058824%,57.254902%,15.686275%);stroke-opacity:1;stroke-miterlimit:4;" d="M 205.927734 243.672286 C 205.927734 243.348684 205.766602 243.025082 205.283203 243.025082 L 165.644531 243.025082 C 165.322266 243.025082 165 243.348684 165 243.672286 L 165 302.406044 C 165 302.729646 165.322266 303.053248 165.644531 303.053248 L 205.283203 303.053248 C 205.766602 303.053248 205.927734 302.729646 205.927734 302.406044 L 205.927734 243.672286 " transform="matrix(0.0242424,0,0,0.0241423,0,0)"/>
<path style="fill:none;stroke-width:2;stroke-linecap:butt;stroke-linejoin:miter;stroke:rgb(27.058824%,57.254902%,15.686275%);stroke-opacity:1;stroke-miterlimit:4;" d="M 82.983398 423.918586 L 123.75 423.918586 C 123.911133 423.918586 124.072266 423.918586 124.072266 423.756785 L 124.072266 364.537623 C 124.072266 364.214021 123.75 364.05222 123.427734 364.05222 L 82.983398 364.214021 " transform="matrix(0.0242424,0,0,0.0241423,0,0)"/>
<path style="fill:none;stroke-width:2;stroke-linecap:butt;stroke-linejoin:miter;stroke:rgb(43.137255%,75.294118%,31.764706%);stroke-opacity:1;stroke-miterlimit:4;" d="M 82.983398 364.214021 L 41.572266 364.05222 C 41.25 364.05222 40.927734 364.214021 40.927734 364.537623 L 40.927734 423.271382 C 40.927734 423.756785 41.25 423.918586 41.733398 423.918586 L 82.983398 423.918586 " transform="matrix(0.0242424,0,0,0.0241423,0,0)"/>
<path style="fill:none;stroke-width:2;stroke-linecap:butt;stroke-linejoin:miter;stroke:rgb(39.607843%,67.058824%,29.411765%);stroke-opacity:1;stroke-miterlimit:4;" d="M 82.983398 364.214021 L 82.983398 423.918586 " transform="matrix(0.0242424,0,0,0.0241423,0,0)"/>
<path style="fill:none;stroke-width:2;stroke-linecap:butt;stroke-linejoin:miter;stroke:rgb(43.137255%,75.294118%,31.764706%);stroke-opacity:1;stroke-miterlimit:4;" d="M 247.016602 364.699424 C 247.016602 364.375822 246.694336 364.05222 246.37207 364.05222 L 206.733398 364.05222 C 206.25 364.05222 205.927734 364.375822 205.927734 364.699424 L 205.927734 423.271382 C 205.927734 423.756785 206.25 424.080387 206.733398 424.080387 L 246.37207 424.080387 C 246.694336 424.080387 247.016602 423.756785 247.016602 423.271382 L 247.016602 364.699424 " transform="matrix(0.0242424,0,0,0.0241423,0,0)"/>
<path style="fill:none;stroke-width:2;stroke-linecap:butt;stroke-linejoin:miter;stroke:rgb(39.607843%,67.058824%,29.411765%);stroke-opacity:1;stroke-miterlimit:4;" d="M 123.75 60.998972 L 82.983398 60.998972 " transform="matrix(0.0242424,0,0,0.0241423,0,0)"/>
<path style="fill:none;stroke-width:2;stroke-linecap:butt;stroke-linejoin:miter;stroke:rgb(39.607843%,67.058824%,29.411765%);stroke-opacity:1;stroke-miterlimit:4;" d="M 205.927734 0.970806 L 205.927734 60.998972 " transform="matrix(0.0242424,0,0,0.0241423,0,0)"/>
<path style="fill:none;stroke-width:2;stroke-linecap:butt;stroke-linejoin:miter;stroke:rgb(39.607843%,67.058824%,29.411765%);stroke-opacity:1;stroke-miterlimit:4;" d="M 82.983398 182.02611 L 82.983398 243.025082 " transform="matrix(0.0242424,0,0,0.0241423,0,0)"/>
<path style="fill:none;stroke-width:2;stroke-linecap:butt;stroke-linejoin:miter;stroke:rgb(39.607843%,67.058824%,29.411765%);stroke-opacity:1;stroke-miterlimit:4;" d="M 41.25 243.025082 C 41.088867 243.025082 40.927734 243.025082 40.927734 242.863281 " transform="matrix(0.0242424,0,0,0.0241423,0,0)"/>
<path style="fill:none;stroke-width:2;stroke-linecap:butt;stroke-linejoin:miter;stroke:rgb(39.607843%,67.058824%,29.411765%);stroke-opacity:1;stroke-miterlimit:4;" d="M 124.072266 182.02611 L 124.072266 242.863281 " transform="matrix(0.0242424,0,0,0.0241423,0,0)"/>
<path style="fill:none;stroke-width:2;stroke-linecap:butt;stroke-linejoin:miter;stroke:rgb(61.960784%,74.509804%,56.862745%);stroke-opacity:1;stroke-miterlimit:4;" d="M 206.088867 484.917558 L 164.677734 484.917558 " transform="matrix(0.0242424,0,0,0.0241423,0,0)"/>
<path style="fill:none;stroke-width:2;stroke-linecap:butt;stroke-linejoin:miter;stroke:rgb(78.039216%,92.54902%,72.54902%);stroke-opacity:1;stroke-miterlimit:4;" d="M 330 484.917558 L 289.072266 484.917558 " transform="matrix(0.0242424,0,0,0.0241423,0,0)"/>
<path style="fill:none;stroke-width:2;stroke-linecap:butt;stroke-linejoin:miter;stroke:rgb(65.490196%,82.745098%,59.215686%);stroke-opacity:1;stroke-miterlimit:4;" d="M 330 544.945724 L 206.088867 544.945724 " transform="matrix(0.0242424,0,0,0.0241423,0,0)"/>
<path style="fill:none;stroke-width:2;stroke-linecap:butt;stroke-linejoin:miter;stroke:rgb(61.960784%,74.509804%,56.862745%);stroke-opacity:1;stroke-miterlimit:4;" d="M 206.088867 544.945724 L 164.838867 544.945724 " transform="matrix(0.0242424,0,0,0.0241423,0,0)"/>
<path style="fill:none;stroke-width:2;stroke-linecap:butt;stroke-linejoin:miter;stroke:rgb(65.490196%,82.745098%,59.215686%);stroke-opacity:1;stroke-miterlimit:4;" d="M 164.838867 544.945724 L 0 544.945724 " transform="matrix(0.0242424,0,0,0.0241423,0,0)"/>
<path style="fill:none;stroke-width:2;stroke-linecap:butt;stroke-linejoin:miter;stroke:rgb(27.058824%,57.254902%,15.686275%);stroke-opacity:1;stroke-miterlimit:4;" d="M 164.838867 544.945724 L 165 605.782895 C 165 605.944696 165.161133 605.944696 165.322266 605.944696 L 205.283203 605.944696 C 205.605469 605.944696 205.927734 605.621094 205.927734 605.297492 L 206.088867 544.945724 " transform="matrix(0.0242424,0,0,0.0241423,0,0)"/>
<path style="fill:none;stroke-width:2;stroke-linecap:butt;stroke-linejoin:miter;stroke:rgb(27.058824%,57.254902%,15.686275%);stroke-opacity:1;stroke-miterlimit:4;" d="M 330 665.972862 L 289.716797 665.972862 C 289.394531 665.972862 289.072266 666.458265 289.072266 666.781867 L 288.911133 726.971834 " transform="matrix(0.0242424,0,0,0.0241423,0,0)"/>
<path style="fill:none;stroke-width:2;stroke-linecap:butt;stroke-linejoin:miter;stroke:rgb(40%,43.137255%,11.764706%);stroke-opacity:1;stroke-miterlimit:4;" d="M 288.911133 726.971834 L 247.822266 726.971834 C 247.338867 726.971834 247.016602 726.648232 247.016602 726.162829 L 247.016602 666.458265 C 247.016602 666.134663 246.855469 665.972862 246.533203 665.972862 L 205.766602 665.972862 " transform="matrix(0.0242424,0,0,0.0241423,0,0)"/>
<path style="fill:none;stroke-width:2;stroke-linecap:butt;stroke-linejoin:miter;stroke:rgb(27.058824%,57.254902%,15.686275%);stroke-opacity:1;stroke-miterlimit:4;" d="M 205.766602 665.972862 L 165.805664 665.972862 C 165.322266 665.972862 165 666.296464 165 666.943668 L 165 726.971834 " transform="matrix(0.0242424,0,0,0.0241423,0,0)"/>
<path style="fill:none;stroke-width:2;stroke-linecap:butt;stroke-linejoin:miter;stroke:rgb(33.333333%,38.823529%,9.019608%);stroke-opacity:1;stroke-miterlimit:4;" d="M 165 726.971834 L 124.233398 726.971834 " transform="matrix(0.0242424,0,0,0.0241423,0,0)"/>
<path style="fill:none;stroke-width:2;stroke-linecap:butt;stroke-linejoin:miter;stroke:rgb(40%,43.137255%,11.764706%);stroke-opacity:1;stroke-miterlimit:4;" d="M 124.233398 726.971834 L 124.072266 726.810033 " transform="matrix(0.0242424,0,0,0.0241423,0,0)"/>
<path style="fill:none;stroke-width:2;stroke-linecap:butt;stroke-linejoin:miter;stroke:rgb(52.54902%,48.627451%,12.941176%);stroke-opacity:1;stroke-miterlimit:4;" d="M 124.072266 726.810033 L 123.911133 666.296464 " transform="matrix(0.0242424,0,0,0.0241423,0,0)"/>
<path style="fill:none;stroke-width:2;stroke-linecap:butt;stroke-linejoin:miter;stroke:rgb(27.058824%,57.254902%,15.686275%);stroke-opacity:1;stroke-miterlimit:4;" d="M 123.911133 666.296464 C 124.233398 665.811061 124.233398 665.64926 124.072266 665.972862 " transform="matrix(0.0242424,0,0,0.0241423,0,0)"/>
<path style="fill:none;stroke-width:2;stroke-linecap:butt;stroke-linejoin:miter;stroke:rgb(43.137255%,75.294118%,31.764706%);stroke-opacity:1;stroke-miterlimit:4;" d="M 124.072266 665.972862 L 164.516602 665.972862 C 164.838867 665.972862 165 665.811061 165 665.487459 L 165 606.268298 C 165 606.106497 164.838867 606.106497 164.677734 606.106497 L 124.072266 606.106497 " transform="matrix(0.0242424,0,0,0.0241423,0,0)"/>
<path style="fill:none;stroke-width:2;stroke-linecap:butt;stroke-linejoin:miter;stroke:rgb(27.058824%,57.254902%,15.686275%);stroke-opacity:1;stroke-miterlimit:4;" d="M 124.072266 606.106497 L 82.983398 605.944696 " transform="matrix(0.0242424,0,0,0.0241423,0,0)"/>
<path style="fill:none;stroke-width:2;stroke-linecap:butt;stroke-linejoin:miter;stroke:rgb(43.137255%,75.294118%,31.764706%);stroke-opacity:1;stroke-miterlimit:4;" d="M 82.983398 605.944696 L 41.733398 606.106497 C 41.25 606.106497 40.927734 606.268298 40.927734 606.753701 L 41.088867 665.163857 C 41.088867 665.64926 41.411133 665.972862 41.894531 665.972862 L 82.661133 665.972862 " transform="matrix(0.0242424,0,0,0.0241423,0,0)"/>
<path style="fill:none;stroke-width:2;stroke-linecap:butt;stroke-linejoin:miter;stroke:rgb(27.058824%,57.254902%,15.686275%);stroke-opacity:1;stroke-miterlimit:4;" d="M 82.661133 665.972862 C 82.822266 665.972862 82.983398 666.134663 82.983398 666.620066 " transform="matrix(0.0242424,0,0,0.0241423,0,0)"/>
<path style="fill:none;stroke-width:2;stroke-linecap:butt;stroke-linejoin:miter;stroke:rgb(52.54902%,48.627451%,12.941176%);stroke-opacity:1;stroke-miterlimit:4;" d="M 82.983398 666.620066 L 82.983398 726.32463 " transform="matrix(0.0242424,0,0,0.0241423,0,0)"/>
<path style="fill:none;stroke-width:2;stroke-linecap:butt;stroke-linejoin:miter;stroke:rgb(40%,43.137255%,11.764706%);stroke-opacity:1;stroke-miterlimit:4;" d="M 82.983398 726.32463 C 83.144531 726.486431 83.144531 726.648232 82.983398 726.971834 " transform="matrix(0.0242424,0,0,0.0241423,0,0)"/>
<path style="fill:none;stroke-width:2;stroke-linecap:butt;stroke-linejoin:miter;stroke:rgb(27.058824%,57.254902%,15.686275%);stroke-opacity:1;stroke-miterlimit:4;" d="M 82.983398 726.971834 L 41.733398 726.971834 C 41.411133 726.971834 40.927734 726.648232 40.927734 726.162829 L 41.088867 666.458265 C 41.088867 666.296464 40.766602 665.972862 40.444336 665.972862 C 28.520508 665.972862 16.59668 665.972862 4.833984 666.134663 C 3.061523 666.134663 1.611328 665.972862 0 665.64926 " transform="matrix(0.0242424,0,0,0.0241423,0,0)"/>
<path style="fill:none;stroke-width:2;stroke-linecap:butt;stroke-linejoin:miter;stroke:rgb(43.137255%,75.294118%,31.764706%);stroke-opacity:1;stroke-miterlimit:4;" d="M 289.072266 606.5919 C 289.072266 606.268298 288.75 605.944696 288.266602 605.944696 L 247.661133 605.944696 C 247.338867 605.944696 247.016602 606.268298 247.016602 606.5919 L 247.016602 665.325658 C 247.016602 665.64926 247.338867 665.972862 247.661133 665.972862 L 288.266602 665.972862 C 288.75 665.972862 289.072266 665.64926 289.072266 665.325658 L 289.072266 606.5919 " transform="matrix(0.0242424,0,0,0.0241423,0,0)"/>
<path style="fill:none;stroke-width:2;stroke-linecap:butt;stroke-linejoin:miter;stroke:rgb(39.607843%,67.058824%,29.411765%);stroke-opacity:1;stroke-miterlimit:4;" d="M 82.983398 605.944696 L 82.983398 665.64926 C 82.983398 665.811061 82.983398 665.811061 82.983398 665.811061 C 82.822266 665.811061 82.822266 665.811061 82.661133 665.972862 " transform="matrix(0.0242424,0,0,0.0241423,0,0)"/>
<path style="fill:none;stroke-width:2;stroke-linecap:butt;stroke-linejoin:miter;stroke:rgb(39.607843%,67.058824%,29.411765%);stroke-opacity:1;stroke-miterlimit:4;" d="M 124.072266 606.106497 L 124.072266 665.972862 " transform="matrix(0.0242424,0,0,0.0241423,0,0)"/>
<path style="fill:none;stroke-width:2;stroke-linecap:butt;stroke-linejoin:miter;stroke:rgb(49.019608%,40.392157%,10.588235%);stroke-opacity:1;stroke-miterlimit:4;" d="M 123.911133 666.296464 C 123.75 666.296464 123.75 666.296464 123.588867 666.134663 C 123.588867 665.972862 123.588867 665.972862 123.427734 665.972862 L 84.433594 665.972862 C 84.111328 665.972862 83.789062 666.134663 83.62793 666.296464 L 82.983398 666.620066 " transform="matrix(0.0242424,0,0,0.0241423,0,0)"/>
<path style="fill:none;stroke-width:2;stroke-linecap:butt;stroke-linejoin:miter;stroke:rgb(36.470588%,34.901961%,9.411765%);stroke-opacity:1;stroke-miterlimit:4;" d="M 82.983398 726.971834 L 82.983398 787 " transform="matrix(0.0242424,0,0,0.0241423,0,0)"/>
<path style="fill:none;stroke-width:2;stroke-linecap:butt;stroke-linejoin:miter;stroke:rgb(49.019608%,40.392157%,10.588235%);stroke-opacity:1;stroke-miterlimit:4;" d="M 82.983398 787 L 82.983398 787 " transform="matrix(0.0242424,0,0,0.0241423,0,0)"/>
<path style="fill:none;stroke-width:2;stroke-linecap:butt;stroke-linejoin:miter;stroke:rgb(36.470588%,34.901961%,9.411765%);stroke-opacity:1;stroke-miterlimit:4;" d="M 82.983398 787 L 40.927734 787 " transform="matrix(0.0242424,0,0,0.0241423,0,0)"/>
<path style="fill:none;stroke-width:2;stroke-linecap:butt;stroke-linejoin:miter;stroke:rgb(49.019608%,40.392157%,10.588235%);stroke-opacity:1;stroke-miterlimit:4;" d="M 40.927734 787 L 40.927734 728.104441 C 40.927734 727.457237 40.444336 727.133635 39.960938 727.133635 L 0 726.971834 " transform="matrix(0.0242424,0,0,0.0241423,0,0)"/>
<path style="fill:none;stroke-width:2;stroke-linecap:butt;stroke-linejoin:miter;stroke:rgb(36.470588%,34.901961%,9.411765%);stroke-opacity:1;stroke-miterlimit:4;" d="M 205.766602 665.972862 L 206.088867 726.971834 " transform="matrix(0.0242424,0,0,0.0241423,0,0)"/>
<path style="fill:none;stroke-width:2;stroke-linecap:butt;stroke-linejoin:miter;stroke:rgb(19.607843%,40.784314%,11.372549%);stroke-opacity:1;stroke-miterlimit:4;" d="M 206.088867 726.971834 L 165.161133 727.133635 " transform="matrix(0.0242424,0,0,0.0241423,0,0)"/>
<path style="fill:none;stroke-width:2;stroke-linecap:butt;stroke-linejoin:miter;stroke:rgb(29.803922%,30.588235%,6.666667%);stroke-opacity:1;stroke-miterlimit:4;" d="M 165.161133 727.133635 C 164.838867 727.295436 164.838867 727.295436 165 726.971834 " transform="matrix(0.0242424,0,0,0.0241423,0,0)"/>
<path style="fill:none;stroke-width:2;stroke-linecap:butt;stroke-linejoin:miter;stroke:rgb(61.960784%,26.27451%,6.666667%);stroke-opacity:1;stroke-miterlimit:4;" d="M 124.072266 726.810033 C 123.911133 726.810033 123.75 726.810033 123.588867 726.810033 C 123.105469 726.971834 122.783203 726.971834 122.783203 726.971834 L 83.789062 726.971834 C 83.466797 726.971834 83.305664 726.810033 83.144531 726.648232 L 82.983398 726.32463 " transform="matrix(0.0242424,0,0,0.0241423,0,0)"/>
<path style="fill:none;stroke-width:2;stroke-linecap:butt;stroke-linejoin:miter;stroke:rgb(36.470588%,34.901961%,9.411765%);stroke-opacity:1;stroke-miterlimit:4;" d="M 288.911133 726.971834 L 289.072266 787 " transform="matrix(0.0242424,0,0,0.0241423,0,0)"/>
<path style="fill:none;stroke-width:2;stroke-linecap:butt;stroke-linejoin:miter;stroke:rgb(42.745098%,16.470588%,2.745098%);stroke-opacity:1;stroke-miterlimit:4;" d="M 289.072266 787 L 289.072266 847.67537 C 289.072266 847.837171 289.233398 847.998972 289.394531 847.998972 L 330 847.998972 " transform="matrix(0.0242424,0,0,0.0241423,0,0)"/>
<path style="fill:none;stroke-width:2;stroke-linecap:butt;stroke-linejoin:miter;stroke:rgb(74.901961%,60.392157%,52.941176%);stroke-opacity:1;stroke-miterlimit:4;" d="M 330 1029.054276 L 247.016602 1029.054276 " transform="matrix(0.0242424,0,0,0.0241423,0,0)"/>
<path style="fill:none;stroke-width:2;stroke-linecap:butt;stroke-linejoin:miter;stroke:rgb(42.745098%,16.470588%,2.745098%);stroke-opacity:1;stroke-miterlimit:4;" d="M 247.016602 1029.054276 L 247.016602 969.835115 C 247.016602 969.673314 246.855469 969.349712 246.855469 969.187911 C 246.694336 969.02611 246.37207 969.02611 246.210938 969.02611 L 205.927734 969.187911 " transform="matrix(0.0242424,0,0,0.0241423,0,0)"/>
<path style="fill:none;stroke-width:2;stroke-linecap:butt;stroke-linejoin:miter;stroke:rgb(61.960784%,26.27451%,6.666667%);stroke-opacity:1;stroke-miterlimit:4;" d="M 205.927734 969.187911 L 165.966797 969.02611 C 165.483398 969.02611 165 968.540707 165 968.055304 L 165 908.512541 C 165 908.35074 165 908.188939 164.838867 908.188939 C 164.838867 908.027138 164.677734 908.027138 164.516602 908.027138 L 124.555664 908.027138 C 124.233398 908.027138 124.072266 908.188939 124.072266 908.512541 L 124.072266 968.540707 C 124.072266 968.702508 124.233398 969.02611 124.555664 969.02611 L 164.033203 969.02611 C 164.516602 969.02611 165 969.511513 165 969.996916 L 165 1029.054276 " transform="matrix(0.0242424,0,0,0.0241423,0,0)"/>
<path style="fill:none;stroke-width:2;stroke-linecap:butt;stroke-linejoin:miter;stroke:rgb(74.901961%,60.392157%,52.941176%);stroke-opacity:1;stroke-miterlimit:4;" d="M 165 1029.054276 L 82.983398 1029.054276 " transform="matrix(0.0242424,0,0,0.0241423,0,0)"/>
<path style="fill:none;stroke-width:2;stroke-linecap:butt;stroke-linejoin:miter;stroke:rgb(42.745098%,16.470588%,2.745098%);stroke-opacity:1;stroke-miterlimit:4;" d="M 82.983398 1029.054276 L 82.983398 969.673314 C 82.983398 969.349712 82.661133 969.02611 82.338867 969.02611 L 41.25 968.864309 " transform="matrix(0.0242424,0,0,0.0241423,0,0)"/>
<path style="fill:none;stroke-width:2;stroke-linecap:butt;stroke-linejoin:miter;stroke:rgb(61.960784%,26.27451%,6.666667%);stroke-opacity:1;stroke-miterlimit:4;" d="M 41.25 968.864309 L 40.927734 908.512541 C 40.927734 908.188939 40.766602 908.027138 40.444336 908.027138 L 0 908.027138 " transform="matrix(0.0242424,0,0,0.0241423,0,0)"/>
<path style="fill:none;stroke-width:2;stroke-linecap:butt;stroke-linejoin:miter;stroke:rgb(42.745098%,16.470588%,2.745098%);stroke-opacity:1;stroke-miterlimit:4;" d="M 0 847.998972 L 40.766602 847.998972 C 40.927734 847.998972 40.927734 847.837171 40.927734 847.67537 L 40.927734 787 " transform="matrix(0.0242424,0,0,0.0241423,0,0)"/>
<path style="fill:none;stroke-width:2;stroke-linecap:butt;stroke-linejoin:miter;stroke:rgb(61.960784%,26.27451%,6.666667%);stroke-opacity:1;stroke-miterlimit:4;" d="M 82.983398 787 L 82.983398 847.67537 C 82.983398 847.837171 83.144531 847.998972 83.305664 847.998972 L 123.75 847.998972 C 123.911133 847.998972 124.072266 847.837171 124.072266 847.67537 L 124.072266 787 " transform="matrix(0.0242424,0,0,0.0241423,0,0)"/>
<path style="fill:none;stroke-width:2;stroke-linecap:butt;stroke-linejoin:miter;stroke:rgb(42.745098%,16.470588%,2.745098%);stroke-opacity:1;stroke-miterlimit:4;" d="M 124.072266 787 L 165 787 " transform="matrix(0.0242424,0,0,0.0241423,0,0)"/>
<path style="fill:none;stroke-width:2;stroke-linecap:butt;stroke-linejoin:miter;stroke:rgb(32.54902%,26.666667%,7.45098%);stroke-opacity:1;stroke-miterlimit:4;" d="M 165 787 L 205.12207 787 C 205.605469 787 205.927734 786.676398 205.927734 786.029194 L 206.088867 726.971834 " transform="matrix(0.0242424,0,0,0.0241423,0,0)"/>
<path style="fill:none;stroke-width:2;stroke-linecap:butt;stroke-linejoin:miter;stroke:rgb(42.745098%,16.470588%,2.745098%);stroke-opacity:1;stroke-miterlimit:4;" d="M 247.016602 908.027138 L 247.016602 968.217105 C 247.016602 968.702508 247.338867 969.02611 247.822266 969.02611 L 288.75 969.02611 C 288.911133 969.02611 289.072266 968.864309 289.072266 968.702508 L 289.072266 908.674342 C 289.072266 908.188939 288.75 908.027138 288.266602 908.027138 L 247.016602 908.027138 " transform="matrix(0.0242424,0,0,0.0241423,0,0)"/>
<path style="fill:none;stroke-width:2;stroke-linecap:butt;stroke-linejoin:miter;stroke:rgb(61.960784%,26.27451%,6.666667%);stroke-opacity:1;stroke-miterlimit:4;" d="M 247.016602 908.027138 L 247.016602 848.484375 C 247.016602 848.160773 246.855469 847.998972 246.533203 847.998972 L 206.411133 847.998972 C 206.25 847.998972 205.927734 848.160773 205.927734 848.484375 L 205.927734 907.379934 C 205.927734 907.703536 206.25 908.027138 206.572266 908.027138 L 247.016602 908.027138 " transform="matrix(0.0242424,0,0,0.0241423,0,0)"/>
<path style="fill:none;stroke-width:2;stroke-linecap:butt;stroke-linejoin:miter;stroke:rgb(29.803922%,30.588235%,6.666667%);stroke-opacity:1;stroke-miterlimit:4;" d="M 330 787 L 289.072266 787 " transform="matrix(0.0242424,0,0,0.0241423,0,0)"/>
<path style="fill:none;stroke-width:2;stroke-linecap:butt;stroke-linejoin:miter;stroke:rgb(42.745098%,16.470588%,2.745098%);stroke-opacity:1;stroke-miterlimit:4;" d="M 124.233398 726.971834 C 124.233398 727.133635 124.233398 727.295436 124.072266 727.295436 C 124.072266 727.457237 123.911133 727.619038 123.911133 727.780839 L 123.911133 787 " transform="matrix(0.0242424,0,0,0.0241423,0,0)"/>
<path style="fill:none;stroke-width:2;stroke-linecap:butt;stroke-linejoin:miter;stroke:rgb(61.960784%,26.27451%,6.666667%);stroke-opacity:1;stroke-miterlimit:4;" d="M 123.911133 787 L 82.983398 787 " transform="matrix(0.0242424,0,0,0.0241423,0,0)"/>
<path style="fill:none;stroke-width:2;stroke-linecap:butt;stroke-linejoin:miter;stroke:rgb(55.294118%,21.960784%,3.921569%);stroke-opacity:1;stroke-miterlimit:4;" d="M 40.927734 787 L 0 787 " transform="matrix(0.0242424,0,0,0.0241423,0,0)"/>
<path style="fill:none;stroke-width:2;stroke-linecap:butt;stroke-linejoin:miter;stroke:rgb(25.882353%,22.352941%,4.705882%);stroke-opacity:1;stroke-miterlimit:4;" d="M 165.161133 727.133635 L 165 787 " transform="matrix(0.0242424,0,0,0.0241423,0,0)"/>
<path style="fill:none;stroke-width:2;stroke-linecap:butt;stroke-linejoin:miter;stroke:rgb(55.294118%,21.960784%,3.921569%);stroke-opacity:1;stroke-miterlimit:4;" d="M 124.072266 787 C 124.072266 787 123.911133 787 123.911133 787 " transform="matrix(0.0242424,0,0,0.0241423,0,0)"/>
<path style="fill:none;stroke-width:2;stroke-linecap:butt;stroke-linejoin:miter;stroke:rgb(55.294118%,21.960784%,3.921569%);stroke-opacity:1;stroke-miterlimit:4;" d="M 41.25 968.864309 C 41.411133 969.511513 41.25 969.511513 40.927734 969.02611 " transform="matrix(0.0242424,0,0,0.0241423,0,0)"/>
<path style="fill:none;stroke-width:2;stroke-linecap:butt;stroke-linejoin:miter;stroke:rgb(61.960784%,26.27451%,6.666667%);stroke-opacity:1;stroke-miterlimit:4;" d="M 40.927734 969.02611 L 0 968.864309 " transform="matrix(0.0242424,0,0,0.0241423,0,0)"/>
<path style="fill:none;stroke-width:2;stroke-linecap:butt;stroke-linejoin:miter;stroke:rgb(55.294118%,21.960784%,3.921569%);stroke-opacity:1;stroke-miterlimit:4;" d="M 205.927734 969.187911 L 205.766602 1029.054276 " transform="matrix(0.0242424,0,0,0.0241423,0,0)"/>
<path style="fill:none;stroke-width:2;stroke-linecap:butt;stroke-linejoin:miter;stroke:rgb(87.45098%,65.882353%,54.117647%);stroke-opacity:1;stroke-miterlimit:4;" d="M 205.766602 1029.054276 L 165 1029.054276 " transform="matrix(0.0242424,0,0,0.0241423,0,0)"/>
<path style="fill:none;stroke-width:2;stroke-linecap:butt;stroke-linejoin:miter;stroke:rgb(42.745098%,16.470588%,2.745098%);stroke-opacity:1;stroke-miterlimit:4;" d="M 40.927734 969.02611 L 40.927734 1029.054276 " transform="matrix(0.0242424,0,0,0.0241423,0,0)"/>
<path style="fill:none;stroke-width:2;stroke-linecap:butt;stroke-linejoin:miter;stroke:rgb(74.901961%,60.392157%,52.941176%);stroke-opacity:1;stroke-miterlimit:4;" d="M 40.927734 1029.054276 L 0 1029.054276 " transform="matrix(0.0242424,0,0,0.0241423,0,0)"/>
<path style="fill:none;stroke-width:2;stroke-linecap:butt;stroke-linejoin:miter;stroke:rgb(68.235294%,56.078431%,50.196078%);stroke-opacity:1;stroke-miterlimit:4;" d="M 82.983398 1029.054276 L 40.927734 1029.054276 " transform="matrix(0.0242424,0,0,0.0241423,0,0)"/>
<path style="fill:none;stroke-width:2;stroke-linecap:butt;stroke-linejoin:miter;stroke:rgb(68.235294%,56.078431%,50.196078%);stroke-opacity:1;stroke-miterlimit:4;" d="M 247.016602 1029.054276 L 205.766602 1029.054276 " transform="matrix(0.0242424,0,0,0.0241423,0,0)"/>
<path style="fill:none;stroke-width:2;stroke-linecap:butt;stroke-linejoin:miter;stroke:rgb(74.901961%,60.392157%,52.941176%);stroke-opacity:1;stroke-miterlimit:4;" d="M 330 1089.891447 L 247.016602 1090.053248 " transform="matrix(0.0242424,0,0,0.0241423,0,0)"/>
<path style="fill:none;stroke-width:2;stroke-linecap:butt;stroke-linejoin:miter;stroke:rgb(87.45098%,65.882353%,54.117647%);stroke-opacity:1;stroke-miterlimit:4;" d="M 247.016602 1090.053248 L 206.088867 1089.891447 " transform="matrix(0.0242424,0,0,0.0241423,0,0)"/>
<path style="fill:none;stroke-width:2;stroke-linecap:butt;stroke-linejoin:miter;stroke:rgb(68.235294%,56.078431%,50.196078%);stroke-opacity:1;stroke-miterlimit:4;" d="M 206.088867 1089.891447 L 165 1090.053248 " transform="matrix(0.0242424,0,0,0.0241423,0,0)"/>
<path style="fill:none;stroke-width:2;stroke-linecap:butt;stroke-linejoin:miter;stroke:rgb(74.901961%,60.392157%,52.941176%);stroke-opacity:1;stroke-miterlimit:4;" d="M 165 1090.053248 L 0 1089.891447 " transform="matrix(0.0242424,0,0,0.0241423,0,0)"/>
<path style="fill:none;stroke-width:2;stroke-linecap:butt;stroke-linejoin:miter;stroke:rgb(42.745098%,16.470588%,2.745098%);stroke-opacity:1;stroke-miterlimit:4;" d="M 165 1090.053248 L 165 1149.596012 C 165 1149.919613 165.161133 1150.081414 165.483398 1150.081414 L 205.927734 1149.919613 " transform="matrix(0.0242424,0,0,0.0241423,0,0)"/>
<path style="fill:none;stroke-width:2;stroke-linecap:butt;stroke-linejoin:miter;stroke:rgb(61.960784%,26.27451%,6.666667%);stroke-opacity:1;stroke-miterlimit:4;" d="M 205.927734 1149.919613 L 245.727539 1149.919613 C 246.533203 1149.919613 247.016602 1150.405016 247.016602 1151.214021 L 247.016602 1210.756785 C 247.016602 1210.918586 247.177734 1211.080387 247.338867 1211.080387 L 288.588867 1211.080387 C 288.911133 1211.080387 289.072266 1210.756785 289.072266 1210.433183 L 289.072266 1150.566817 C 289.072266 1150.243215 288.75 1149.919613 288.427734 1149.919613 L 248.305664 1149.919613 C 247.5 1149.919613 247.016602 1149.434211 247.016602 1148.787007 L 247.016602 1090.053248 " transform="matrix(0.0242424,0,0,0.0241423,0,0)"/>
<path style="fill:none;stroke-width:2;stroke-linecap:butt;stroke-linejoin:miter;stroke:rgb(61.960784%,26.27451%,6.666667%);stroke-opacity:1;stroke-miterlimit:4;" d="M 330 1331.945724 L 289.555664 1331.945724 C 289.233398 1331.945724 289.072266 1332.107525 289.072266 1332.431127 L 289.072266 1391.97389 " transform="matrix(0.0242424,0,0,0.0241423,0,0)"/>
<path style="fill:none;stroke-width:2;stroke-linecap:butt;stroke-linejoin:miter;stroke:rgb(42.745098%,16.470588%,2.745098%);stroke-opacity:1;stroke-miterlimit:4;" d="M 289.072266 1391.97389 L 289.072266 1452.487459 C 289.072266 1452.811061 289.233398 1452.972862 289.555664 1452.972862 L 330 1453.134663 " transform="matrix(0.0242424,0,0,0.0241423,0,0)"/>
<path style="fill:none;stroke-width:2;stroke-linecap:butt;stroke-linejoin:miter;stroke:rgb(42.745098%,16.470588%,2.745098%);stroke-opacity:1;stroke-miterlimit:4;" d="M 288.911133 1574 L 288.911133 1513.32463 C 288.911133 1513.162829 288.911133 1513.162829 288.911133 1513.162829 C 288.911133 1513.001028 288.75 1513.001028 288.75 1513.001028 L 247.983398 1513.001028 C 247.822266 1513.001028 247.661133 1513.001028 247.661133 1512.839227 C 247.5 1512.839227 247.338867 1512.839227 247.177734 1512.839227 " transform="matrix(0.0242424,0,0,0.0241423,0,0)"/>
<path style="fill:none;stroke-width:2;stroke-linecap:butt;stroke-linejoin:miter;stroke:rgb(61.960784%,26.27451%,6.666667%);stroke-opacity:1;stroke-miterlimit:4;" d="M 247.177734 1512.839227 L 247.016602 1453.458265 C 247.016602 1453.296464 246.694336 1452.972862 246.533203 1452.972862 L 206.411133 1452.972862 C 206.088867 1452.972862 205.927734 1453.134663 205.927734 1453.458265 L 205.927734 1512.192023 C 205.927734 1512.677426 206.25 1513.001028 206.733398 1513.001028 L 247.016602 1513.001028 " transform="matrix(0.0242424,0,0,0.0241423,0,0)"/>
<path style="fill:none;stroke-width:2;stroke-linecap:butt;stroke-linejoin:miter;stroke:rgb(42.745098%,16.470588%,2.745098%);stroke-opacity:1;stroke-miterlimit:4;" d="M 247.016602 1513.001028 L 247.016602 1574 " transform="matrix(0.0242424,0,0,0.0241423,0,0)"/>
<path style="fill:none;stroke-width:2;stroke-linecap:butt;stroke-linejoin:miter;stroke:rgb(61.960784%,26.27451%,6.666667%);stroke-opacity:1;stroke-miterlimit:4;" d="M 165 1574 L 165 1513.486431 C 165 1513.162829 164.838867 1513.001028 164.516602 1513.001028 L 124.555664 1513.001028 C 124.233398 1513.001028 123.911133 1513.162829 123.911133 1513.486431 L 123.911133 1574 " transform="matrix(0.0242424,0,0,0.0241423,0,0)"/>
<path style="fill:none;stroke-width:2;stroke-linecap:butt;stroke-linejoin:miter;stroke:rgb(61.960784%,26.27451%,6.666667%);stroke-opacity:1;stroke-miterlimit:4;" d="M 41.088867 1574 L 41.088867 1513.648232 C 41.088867 1513.32463 40.766602 1513.001028 40.444336 1513.001028 L 0 1513.001028 " transform="matrix(0.0242424,0,0,0.0241423,0,0)"/>
<path style="fill:none;stroke-width:2;stroke-linecap:butt;stroke-linejoin:miter;stroke:rgb(42.745098%,16.470588%,2.745098%);stroke-opacity:1;stroke-miterlimit:4;" d="M 0 1452.972862 L 40.766602 1452.972862 C 40.927734 1452.972862 40.927734 1452.811061 40.927734 1452.64926 L 41.088867 1391.97389 " transform="matrix(0.0242424,0,0,0.0241423,0,0)"/>
<path style="fill:none;stroke-width:2;stroke-linecap:butt;stroke-linejoin:miter;stroke:rgb(61.960784%,26.27451%,6.666667%);stroke-opacity:1;stroke-miterlimit:4;" d="M 41.088867 1391.97389 L 40.927734 1332.269326 C 40.927734 1332.107525 40.766602 1331.945724 40.605469 1331.945724 L 0 1331.945724 " transform="matrix(0.0242424,0,0,0.0241423,0,0)"/>
<path style="fill:none;stroke-width:2;stroke-linecap:butt;stroke-linejoin:miter;stroke:rgb(61.960784%,26.27451%,6.666667%);stroke-opacity:1;stroke-miterlimit:4;" d="M 0 1270.946752 L 41.088867 1270.946752 " transform="matrix(0.0242424,0,0,0.0241423,0,0)"/>
<path style="fill:none;stroke-width:2;stroke-linecap:butt;stroke-linejoin:miter;stroke:rgb(42.745098%,16.470588%,2.745098%);stroke-opacity:1;stroke-miterlimit:4;" d="M 41.088867 1270.946752 L 82.822266 1270.946752 C 82.822266 1270.946752 82.983398 1270.946752 82.983398 1270.784951 L 82.983398 1211.565789 C 82.983398 1211.242188 82.822266 1211.080387 82.5 1211.080387 C 68.964844 1211.080387 55.429688 1211.080387 41.733398 1210.918586 C 41.572266 1210.756785 41.411133 1210.918586 40.927734 1211.242188 " transform="matrix(0.0242424,0,0,0.0241423,0,0)"/>
<path style="fill:none;stroke-width:2;stroke-linecap:butt;stroke-linejoin:miter;stroke:rgb(61.960784%,26.27451%,6.666667%);stroke-opacity:1;stroke-miterlimit:4;" d="M 40.927734 1211.242188 L 0 1210.918586 " transform="matrix(0.0242424,0,0,0.0241423,0,0)"/>
<path style="fill:none;stroke-width:2;stroke-linecap:butt;stroke-linejoin:miter;stroke:rgb(61.960784%,26.27451%,6.666667%);stroke-opacity:1;stroke-miterlimit:4;" d="M 124.072266 1150.728618 C 124.072266 1150.243215 123.75 1149.919613 123.266602 1149.919613 L 83.62793 1149.919613 C 83.305664 1149.919613 82.983398 1150.243215 82.983398 1150.728618 L 82.983398 1210.271382 C 82.983398 1210.756785 83.305664 1211.080387 83.62793 1211.080387 L 123.266602 1211.080387 C 123.75 1211.080387 124.072266 1210.756785 124.072266 1210.271382 L 124.072266 1150.728618 " transform="matrix(0.0242424,0,0,0.0241423,0,0)"/>
<path style="fill:none;stroke-width:2;stroke-linecap:butt;stroke-linejoin:miter;stroke:rgb(42.745098%,16.470588%,2.745098%);stroke-opacity:1;stroke-miterlimit:4;" d="M 206.088867 1331.945724 L 246.694336 1331.945724 C 246.855469 1331.945724 247.016602 1331.945724 247.016602 1331.783923 L 247.016602 1271.432155 C 247.016602 1271.270354 246.694336 1270.946752 246.533203 1270.946752 L 205.927734 1271.270354 " transform="matrix(0.0242424,0,0,0.0241423,0,0)"/>
<path style="fill:none;stroke-width:2;stroke-linecap:butt;stroke-linejoin:miter;stroke:rgb(61.960784%,26.27451%,6.666667%);stroke-opacity:1;stroke-miterlimit:4;" d="M 205.927734 1271.270354 C 205.766602 1271.270354 205.766602 1271.108553 205.605469 1271.108553 C 205.605469 1270.946752 205.605469 1270.946752 205.444336 1270.946752 L 165.322266 1270.946752 C 165.161133 1270.946752 165 1271.108553 165 1271.270354 L 165 1331.136719 C 165 1331.622122 165.322266 1331.945724 165.805664 1331.945724 L 206.088867 1331.945724 " transform="matrix(0.0242424,0,0,0.0241423,0,0)"/>
<path style="fill:none;stroke-width:2;stroke-linecap:butt;stroke-linejoin:miter;stroke:rgb(55.294118%,21.960784%,3.921569%);stroke-opacity:1;stroke-miterlimit:4;" d="M 205.927734 1271.270354 L 206.088867 1331.945724 " transform="matrix(0.0242424,0,0,0.0241423,0,0)"/>
<path style="fill:none;stroke-width:2;stroke-linecap:butt;stroke-linejoin:miter;stroke:rgb(42.745098%,16.470588%,2.745098%);stroke-opacity:1;stroke-miterlimit:4;" d="M 165 1332.431127 C 165 1332.107525 164.838867 1331.945724 164.677734 1331.945724 L 124.394531 1331.945724 C 124.233398 1331.945724 124.072266 1332.107525 124.072266 1332.431127 L 124.072266 1391.650288 C 124.072266 1391.812089 124.233398 1391.97389 124.394531 1391.97389 L 164.677734 1391.97389 C 164.838867 1391.97389 165 1391.812089 165 1391.650288 L 165 1332.431127 " transform="matrix(0.0242424,0,0,0.0241423,0,0)"/>
<path style="fill:none;stroke-width:2;stroke-linecap:butt;stroke-linejoin:miter;stroke:rgb(61.960784%,26.27451%,6.666667%);stroke-opacity:1;stroke-miterlimit:4;" d="M 124.072266 1392.459293 C 124.072266 1392.297492 123.75 1391.97389 123.427734 1391.97389 L 83.466797 1391.97389 C 83.305664 1391.97389 82.983398 1392.297492 82.983398 1392.459293 L 82.983398 1452.487459 C 82.983398 1452.811061 83.305664 1452.972862 83.466797 1452.972862 L 123.427734 1452.972862 C 123.75 1452.972862 124.072266 1452.811061 124.072266 1452.487459 L 124.072266 1392.459293 " transform="matrix(0.0242424,0,0,0.0241423,0,0)"/>
<path style="fill:none;stroke-width:2;stroke-linecap:butt;stroke-linejoin:miter;stroke:rgb(55.294118%,21.960784%,3.921569%);stroke-opacity:1;stroke-miterlimit:4;" d="M 205.927734 1149.919613 L 206.088867 1089.891447 " transform="matrix(0.0242424,0,0,0.0241423,0,0)"/>
<path style="fill:none;stroke-width:2;stroke-linecap:butt;stroke-linejoin:miter;stroke:rgb(55.294118%,21.960784%,3.921569%);stroke-opacity:1;stroke-miterlimit:4;" d="M 40.927734 1211.242188 L 41.088867 1270.946752 " transform="matrix(0.0242424,0,0,0.0241423,0,0)"/>
<path style="fill:none;stroke-width:2;stroke-linecap:butt;stroke-linejoin:miter;stroke:rgb(55.294118%,21.960784%,3.921569%);stroke-opacity:1;stroke-miterlimit:4;" d="M 41.088867 1391.97389 L 0 1391.97389 " transform="matrix(0.0242424,0,0,0.0241423,0,0)"/>
<path style="fill:none;stroke-width:2;stroke-linecap:butt;stroke-linejoin:miter;stroke:rgb(55.294118%,21.960784%,3.921569%);stroke-opacity:1;stroke-miterlimit:4;" d="M 330 1391.97389 L 289.072266 1391.97389 " transform="matrix(0.0242424,0,0,0.0241423,0,0)"/>
<path style="fill:none;stroke-width:2;stroke-linecap:butt;stroke-linejoin:miter;stroke:rgb(55.294118%,21.960784%,3.921569%);stroke-opacity:1;stroke-miterlimit:4;" d="M 247.177734 1512.839227 C 247.338867 1513.32463 247.338867 1513.486431 247.016602 1513.001028 " transform="matrix(0.0242424,0,0,0.0241423,0,0)"/>
<path style=" stroke:none;fill-rule:nonzero;fill:rgb(30.588235%,65.490196%,18.039216%);fill-opacity:1;" d="M 2.007812 0.0234375 L 2.011719 1.472656 L 2.011719 2.925781 C 2.011719 2.9375 2.019531 2.945312 2.03125 2.945312 L 2.988281 2.945312 C 2.996094 2.945312 3.003906 2.9375 3.003906 2.929688 L 3 1.472656 L 3.007812 0.0234375 L 4 0.0234375 L 4 1.460938 C 4 1.46875 4.003906 1.472656 4.011719 1.472656 L 5.976562 1.472656 C 5.984375 1.472656 5.988281 1.46875 5.988281 1.460938 L 5.988281 0.0234375 L 8 0.0234375 L 8 5.867188 L 7.015625 5.867188 C 7.011719 5.867188 7.007812 5.871094 7.007812 5.878906 L 7.007812 7.304688 C 7.007812 7.308594 7.011719 7.3125 7.015625 7.3125 L 8 7.3125 L 8 10.234375 L 7.023438 10.234375 C 7.011719 10.234375 7.007812 10.242188 7.007812 10.25 L 7.007812 11.707031 L 4.996094 11.707031 L 4.996094 10.246094 C 4.996094 10.242188 4.992188 10.238281 4.984375 10.238281 L 4.019531 10.238281 C 4.007812 10.238281 4 10.246094 4 10.253906 L 3.992188 11.707031 L 0 11.707031 L 0 7.316406 L 0.984375 7.316406 C 0.988281 7.316406 0.992188 7.3125 0.992188 7.308594 L 1 5.867188 L 2.011719 5.867188 L 3.007812 5.863281 L 3.992188 5.867188 C 3.996094 5.867188 3.996094 5.867188 3.996094 5.863281 C 4 5.863281 4 5.863281 4 5.859375 L 4 4.402344 C 4 4.398438 3.996094 4.394531 3.992188 4.394531 L 1.007812 4.394531 C 1 4.394531 0.992188 4.402344 0.992188 4.40625 L 0.992188 5.863281 L 0 5.863281 L 0 2.945312 L 0.972656 2.945312 C 0.988281 2.945312 0.992188 2.9375 0.992188 2.925781 L 0.992188 1.484375 C 0.992188 1.476562 0.988281 1.472656 0.980469 1.472656 L 0 1.472656 L 0 0.0429688 C 0.015625 0.03125 0.0390625 0.0234375 0.0742188 0.0234375 C 0.714844 0.0234375 1.359375 0.0234375 2.007812 0.0234375 Z M 7.003906 1.488281 C 7.003906 1.480469 6.996094 1.472656 6.988281 1.472656 L 6.003906 1.472656 C 5.996094 1.472656 5.988281 1.480469 5.988281 1.488281 L 5.992188 2.929688 C 5.992188 2.9375 6 2.945312 6.007812 2.945312 L 6.992188 2.941406 C 7 2.941406 7.007812 2.9375 7.007812 2.925781 Z M 4.992188 2.960938 C 4.992188 2.953125 4.984375 2.945312 4.976562 2.945312 L 4.015625 2.945312 C 4.007812 2.945312 4 2.953125 4 2.960938 L 4 4.378906 C 4 4.386719 4.007812 4.394531 4.015625 4.394531 L 4.976562 4.394531 C 4.984375 4.394531 4.992188 4.386719 4.992188 4.378906 Z M 7.007812 4.40625 C 7.007812 4.398438 7 4.394531 6.992188 4.394531 L 6 4.394531 C 5.992188 4.394531 5.988281 4.398438 5.988281 4.40625 L 5.988281 5.855469 C 5.988281 5.859375 5.992188 5.867188 6 5.867188 L 6.992188 5.867188 C 7 5.867188 7.007812 5.859375 7.007812 5.855469 Z M 4.992188 5.882812 C 4.992188 5.875 4.988281 5.867188 4.976562 5.867188 L 4.015625 5.867188 C 4.007812 5.867188 4 5.875 4 5.882812 L 4 7.300781 C 4 7.308594 4.007812 7.316406 4.015625 7.316406 L 4.976562 7.316406 C 4.988281 7.316406 4.992188 7.308594 4.992188 7.300781 Z M 2.011719 10.234375 L 3 10.234375 C 3.003906 10.234375 3.007812 10.234375 3.007812 10.230469 L 3.007812 8.800781 C 3.007812 8.792969 3 8.789062 2.992188 8.789062 L 2.011719 8.792969 L 1.007812 8.789062 C 1 8.789062 0.992188 8.792969 0.992188 8.800781 L 0.992188 10.21875 C 0.992188 10.230469 1 10.234375 1.011719 10.234375 Z M 5.988281 8.804688 C 5.988281 8.796875 5.980469 8.789062 5.972656 8.789062 L 5.011719 8.789062 C 5 8.789062 4.992188 8.796875 4.992188 8.804688 L 4.992188 10.21875 C 4.992188 10.230469 5 10.238281 5.011719 10.238281 L 5.972656 10.238281 C 5.980469 10.238281 5.988281 10.230469 5.988281 10.21875 Z M 5.988281 8.804688 "/>
<path style=" stroke:none;fill-rule:nonzero;fill:rgb(23.529412%,49.019608%,13.333333%);fill-opacity:1;" d="M 2.007812 0.0234375 L 3.007812 0.0234375 L 3 1.472656 L 2.011719 1.472656 Z M 2.007812 0.0234375 "/>
<path style=" stroke:none;fill-rule:nonzero;fill:rgb(55.686275%,85.098039%,45.098039%);fill-opacity:1;" d="M 4 0.0234375 L 4.992188 0.0234375 L 4.992188 1.472656 L 4.011719 1.472656 C 4.003906 1.472656 4 1.46875 4 1.460938 Z M 4 0.0234375 "/>
<path style=" stroke:none;fill-rule:nonzero;fill:rgb(23.529412%,49.019608%,13.333333%);fill-opacity:1;" d="M 4.992188 0.0234375 L 5.988281 0.0234375 L 5.988281 1.460938 C 5.988281 1.46875 5.984375 1.472656 5.976562 1.472656 L 4.992188 1.472656 Z M 4.992188 0.0234375 "/>
<path style=" stroke:none;fill-rule:nonzero;fill:rgb(23.529412%,49.019608%,13.333333%);fill-opacity:1;" d="M 0 1.472656 L 0.980469 1.472656 C 0.988281 1.472656 0.992188 1.476562 0.992188 1.484375 L 0.992188 2.925781 C 0.992188 2.9375 0.988281 2.945312 0.972656 2.945312 L 0 2.945312 Z M 0 1.472656 "/>
<path style=" stroke:none;fill-rule:nonzero;fill:rgb(55.686275%,85.098039%,45.098039%);fill-opacity:1;" d="M 2.011719 1.472656 L 3 1.472656 L 3.003906 2.929688 C 3.003906 2.9375 2.996094 2.945312 2.988281 2.945312 L 2.03125 2.945312 C 2.019531 2.945312 2.011719 2.9375 2.011719 2.925781 Z M 2.011719 1.472656 "/>
<path style=" stroke:none;fill-rule:nonzero;fill:rgb(23.529412%,49.019608%,13.333333%);fill-opacity:1;" d="M 6.003906 1.472656 L 6.988281 1.472656 C 6.996094 1.472656 7.003906 1.480469 7.003906 1.488281 L 7.007812 2.925781 C 7.007812 2.9375 7 2.941406 6.992188 2.941406 L 6.007812 2.945312 C 6 2.945312 5.992188 2.9375 5.992188 2.929688 L 5.988281 1.488281 C 5.988281 1.480469 5.996094 1.472656 6.003906 1.472656 Z M 6.003906 1.472656 "/>
<path style=" stroke:none;fill-rule:nonzero;fill:rgb(23.529412%,49.019608%,13.333333%);fill-opacity:1;" d="M 4.015625 2.945312 L 4.976562 2.945312 C 4.984375 2.945312 4.992188 2.953125 4.992188 2.960938 L 4.992188 4.378906 C 4.992188 4.386719 4.984375 4.394531 4.976562 4.394531 L 4.015625 4.394531 C 4.007812 4.394531 4 4.386719 4 4.378906 L 4 2.960938 C 4 2.953125 4.007812 2.945312 4.015625 2.945312 Z M 4.015625 2.945312 "/>
<path style=" stroke:none;fill-rule:nonzero;fill:rgb(55.686275%,85.098039%,45.098039%);fill-opacity:1;" d="M 2.011719 4.394531 L 2.011719 5.867188 L 1 5.867188 C 0.996094 5.867188 0.992188 5.867188 0.992188 5.863281 L 0.992188 4.40625 C 0.992188 4.402344 1 4.394531 1.007812 4.394531 Z M 2.011719 4.394531 "/>
<path style=" stroke:none;fill-rule:nonzero;fill:rgb(23.529412%,49.019608%,13.333333%);fill-opacity:1;" d="M 3.007812 4.394531 L 3.007812 5.863281 L 2.011719 5.867188 L 2.011719 4.394531 Z M 3.007812 4.394531 "/>
<path style=" stroke:none;fill-rule:nonzero;fill:rgb(55.686275%,85.098039%,45.098039%);fill-opacity:1;" d="M 3.007812 5.863281 L 3.007812 4.394531 L 3.992188 4.394531 C 3.996094 4.394531 4 4.398438 4 4.402344 L 4 5.859375 C 4 5.863281 4 5.863281 3.996094 5.863281 C 3.996094 5.867188 3.996094 5.867188 3.992188 5.867188 Z M 3.007812 5.863281 "/>
<path style=" stroke:none;fill-rule:nonzero;fill:rgb(55.686275%,85.098039%,45.098039%);fill-opacity:1;" d="M 6 4.394531 L 6.992188 4.394531 C 7 4.394531 7.007812 4.398438 7.007812 4.40625 L 7.007812 5.855469 C 7.007812 5.859375 7 5.867188 6.992188 5.867188 L 6 5.867188 C 5.992188 5.867188 5.988281 5.859375 5.988281 5.855469 L 5.988281 4.40625 C 5.988281 4.398438 5.992188 4.394531 6 4.394531 Z M 6 4.394531 "/>
<path style=" stroke:none;fill-rule:nonzero;fill:rgb(23.529412%,49.019608%,13.333333%);fill-opacity:1;" d="M 0.992188 5.863281 C 0.992188 5.867188 0.996094 5.867188 1 5.867188 L 0.992188 7.308594 C 0.992188 7.3125 0.988281 7.316406 0.984375 7.316406 L 0 7.316406 L 0 5.863281 Z M 0.992188 5.863281 "/>
<path style=" stroke:none;fill-rule:nonzero;fill:rgb(23.529412%,49.019608%,13.333333%);fill-opacity:1;" d="M 4.015625 5.867188 L 4.976562 5.867188 C 4.988281 5.867188 4.992188 5.875 4.992188 5.882812 L 4.992188 7.300781 C 4.992188 7.308594 4.988281 7.316406 4.976562 7.316406 L 4.015625 7.316406 C 4.007812 7.316406 4 7.308594 4 7.300781 L 4 5.882812 C 4 5.875 4.007812 5.867188 4.015625 5.867188 Z M 4.015625 5.867188 "/>
<path style=" stroke:none;fill-rule:nonzero;fill:rgb(23.529412%,49.019608%,13.333333%);fill-opacity:1;" d="M 8 5.867188 L 8 7.3125 L 7.015625 7.3125 C 7.011719 7.3125 7.007812 7.308594 7.007812 7.304688 L 7.007812 5.878906 C 7.007812 5.871094 7.011719 5.867188 7.015625 5.867188 Z M 8 5.867188 "/>
<path style=" stroke:none;fill-rule:nonzero;fill:rgb(55.686275%,85.098039%,45.098039%);fill-opacity:1;" d="M 2.011719 8.792969 L 2.011719 10.234375 L 1.011719 10.234375 C 1 10.234375 0.992188 10.230469 0.992188 10.21875 L 0.992188 8.800781 C 0.992188 8.792969 1 8.789062 1.007812 8.789062 Z M 2.011719 8.792969 "/>
<path style=" stroke:none;fill-rule:nonzero;fill:rgb(23.529412%,49.019608%,13.333333%);fill-opacity:1;" d="M 2.011719 10.234375 L 2.011719 8.792969 L 2.992188 8.789062 C 3 8.789062 3.007812 8.792969 3.007812 8.800781 L 3.007812 10.230469 C 3.007812 10.234375 3.003906 10.234375 3 10.234375 Z M 2.011719 10.234375 "/>
<path style=" stroke:none;fill-rule:nonzero;fill:rgb(55.686275%,85.098039%,45.098039%);fill-opacity:1;" d="M 5.011719 8.789062 L 5.972656 8.789062 C 5.980469 8.789062 5.988281 8.796875 5.988281 8.804688 L 5.988281 10.21875 C 5.988281 10.230469 5.980469 10.238281 5.972656 10.238281 L 5.011719 10.238281 C 5 10.238281 4.992188 10.230469 4.992188 10.21875 L 4.992188 8.804688 C 4.992188 8.796875 5 8.789062 5.011719 8.789062 Z M 5.011719 8.789062 "/>
<path style=" stroke:none;fill-rule:nonzero;fill:rgb(23.529412%,49.019608%,13.333333%);fill-opacity:1;" d="M 4.996094 11.707031 L 3.992188 11.707031 L 4 10.253906 C 4 10.246094 4.007812 10.238281 4.019531 10.238281 L 4.984375 10.238281 C 4.992188 10.238281 4.996094 10.242188 4.996094 10.246094 Z M 4.996094 11.707031 "/>
<path style=" stroke:none;fill-rule:nonzero;fill:rgb(55.686275%,85.098039%,45.098039%);fill-opacity:1;" d="M 8 10.234375 L 8 11.707031 L 7.007812 11.707031 L 7.007812 10.25 C 7.007812 10.242188 7.011719 10.234375 7.023438 10.234375 Z M 8 10.234375 "/>
<path style=" stroke:none;fill-rule:nonzero;fill:rgb(100%,100%,100%);fill-opacity:1;" d="M 8 11.707031 L 8 13.15625 L 0 13.15625 L 0 11.707031 Z M 8 11.707031 "/>
<path style=" stroke:none;fill-rule:nonzero;fill:rgb(30.588235%,65.490196%,18.039216%);fill-opacity:1;" d="M 0 13.15625 L 3.996094 13.15625 L 4 14.625 C 4 14.628906 4.003906 14.628906 4.007812 14.628906 L 4.976562 14.628906 C 4.984375 14.628906 4.992188 14.621094 4.992188 14.613281 L 4.996094 13.15625 L 8 13.15625 L 8 16.078125 L 7.023438 16.078125 C 7.015625 16.078125 7.007812 16.089844 7.007812 16.097656 L 7.003906 17.550781 L 6.007812 17.550781 C 5.996094 17.550781 5.988281 17.542969 5.988281 17.53125 L 5.988281 16.089844 C 5.988281 16.082031 5.984375 16.078125 5.976562 16.078125 L 4.019531 16.078125 C 4.007812 16.078125 4 16.085938 4 16.101562 L 4 17.550781 L 3.011719 17.550781 L 3.007812 17.546875 L 3.003906 16.085938 C 3.011719 16.074219 3.011719 16.070312 3.007812 16.078125 L 3.988281 16.078125 C 3.996094 16.078125 4 16.074219 4 16.066406 L 4 14.636719 C 4 14.632812 3.996094 14.632812 3.992188 14.632812 L 3.007812 14.632812 L 2.011719 14.628906 L 1.011719 14.632812 C 1 14.632812 0.992188 14.636719 0.992188 14.648438 L 0.996094 16.058594 C 0.996094 16.070312 1.003906 16.078125 1.015625 16.078125 L 2.003906 16.078125 C 2.007812 16.078125 2.011719 16.082031 2.011719 16.09375 L 2.011719 17.535156 C 2.015625 17.539062 2.015625 17.542969 2.011719 17.550781 L 1.011719 17.550781 C 1.003906 17.550781 0.992188 17.542969 0.992188 17.53125 L 0.996094 16.089844 C 0.996094 16.085938 0.988281 16.078125 0.980469 16.078125 C 0.691406 16.078125 0.402344 16.078125 0.117188 16.082031 C 0.0742188 16.082031 0.0390625 16.078125 0 16.070312 Z M 7.007812 14.644531 C 7.007812 14.636719 7 14.628906 6.988281 14.628906 L 6.003906 14.628906 C 5.996094 14.628906 5.988281 14.636719 5.988281 14.644531 L 5.988281 16.0625 C 5.988281 16.070312 5.996094 16.078125 6.003906 16.078125 L 6.988281 16.078125 C 7 16.078125 7.007812 16.070312 7.007812 16.0625 Z M 7.007812 14.644531 "/>
<path style=" stroke:none;fill-rule:nonzero;fill:rgb(23.529412%,49.019608%,13.333333%);fill-opacity:1;" d="M 3.996094 13.15625 L 4.996094 13.15625 L 4.992188 14.613281 C 4.992188 14.621094 4.984375 14.628906 4.976562 14.628906 L 4.007812 14.628906 C 4.003906 14.628906 4 14.628906 4 14.625 Z M 3.996094 13.15625 "/>
<path style=" stroke:none;fill-rule:nonzero;fill:rgb(55.686275%,85.098039%,45.098039%);fill-opacity:1;" d="M 2.011719 14.628906 L 2.011719 16.070312 C 2.011719 16.074219 2.011719 16.074219 2.011719 16.074219 C 2.007812 16.074219 2.007812 16.074219 2.003906 16.078125 L 1.015625 16.078125 C 1.003906 16.078125 0.996094 16.070312 0.996094 16.058594 L 0.992188 14.648438 C 0.992188 14.636719 1 14.632812 1.011719 14.632812 Z M 2.011719 14.628906 "/>
<path style=" stroke:none;fill-rule:nonzero;fill:rgb(23.529412%,49.019608%,13.333333%);fill-opacity:1;" d="M 3.007812 14.632812 L 3.007812 16.078125 C 3.011719 16.070312 3.011719 16.074219 3.003906 16.085938 C 3 16.085938 3 16.085938 2.996094 16.082031 C 2.996094 16.078125 2.996094 16.078125 2.992188 16.078125 L 2.046875 16.078125 C 2.039062 16.078125 2.03125 16.082031 2.027344 16.085938 L 2.011719 16.09375 C 2.011719 16.082031 2.007812 16.078125 2.003906 16.078125 C 2.007812 16.074219 2.007812 16.074219 2.011719 16.074219 C 2.011719 16.074219 2.011719 16.074219 2.011719 16.070312 L 2.011719 14.628906 Z M 3.007812 14.632812 "/>
<path style=" stroke:none;fill-rule:nonzero;fill:rgb(55.686275%,85.098039%,45.098039%);fill-opacity:1;" d="M 3.007812 16.078125 L 3.007812 14.632812 L 3.992188 14.632812 C 3.996094 14.632812 4 14.632812 4 14.636719 L 4 16.066406 C 4 16.074219 3.996094 16.078125 3.988281 16.078125 Z M 3.007812 16.078125 "/>
<path style=" stroke:none;fill-rule:nonzero;fill:rgb(55.686275%,85.098039%,45.098039%);fill-opacity:1;" d="M 6.003906 14.628906 L 6.988281 14.628906 C 7 14.628906 7.007812 14.636719 7.007812 14.644531 L 7.007812 16.0625 C 7.007812 16.070312 7 16.078125 6.988281 16.078125 L 6.003906 16.078125 C 5.996094 16.078125 5.988281 16.070312 5.988281 16.0625 L 5.988281 14.644531 C 5.988281 14.636719 5.996094 14.628906 6.003906 14.628906 Z M 6.003906 14.628906 "/>
<path style=" stroke:none;fill-rule:nonzero;fill:rgb(23.529412%,49.019608%,13.333333%);fill-opacity:1;" d="M 0 16.070312 C 0.0390625 16.078125 0.0742188 16.082031 0.117188 16.082031 C 0.402344 16.078125 0.691406 16.078125 0.980469 16.078125 C 0.988281 16.078125 0.996094 16.085938 0.996094 16.089844 L 0.992188 17.53125 C 0.992188 17.542969 1.003906 17.550781 1.011719 17.550781 L 2.011719 17.550781 L 2.011719 19 L 0.992188 19 L 0.992188 17.578125 C 0.992188 17.5625 0.980469 17.554688 0.96875 17.554688 L 0 17.550781 Z M 0 16.070312 "/>
<path style=" stroke:none;fill-rule:nonzero;fill:rgb(23.529412%,49.019608%,13.333333%);fill-opacity:1;" d="M 4.988281 16.078125 L 4.996094 17.550781 L 4.003906 17.554688 C 3.996094 17.558594 3.996094 17.558594 4 17.550781 L 4 16.101562 C 4 16.085938 4.007812 16.078125 4.019531 16.078125 Z M 4.988281 16.078125 "/>
<path style=" stroke:none;fill-rule:nonzero;fill:rgb(74.509804%,31.372549%,7.843137%);fill-opacity:1;" d="M 3.003906 16.085938 L 3.007812 17.546875 C 3.003906 17.546875 3 17.546875 2.996094 17.546875 C 2.984375 17.550781 2.976562 17.550781 2.976562 17.550781 L 2.03125 17.550781 C 2.023438 17.550781 2.019531 17.546875 2.015625 17.542969 L 2.011719 17.535156 L 2.011719 16.09375 L 2.027344 16.085938 C 2.03125 16.082031 2.039062 16.078125 2.046875 16.078125 L 2.992188 16.078125 C 2.996094 16.078125 2.996094 16.078125 2.996094 16.082031 C 3 16.085938 3 16.085938 3.003906 16.085938 Z M 3.003906 16.085938 "/>
<path style=" stroke:none;fill-rule:nonzero;fill:rgb(49.411765%,20.784314%,5.490196%);fill-opacity:1;" d="M 4.988281 16.078125 L 5.976562 16.078125 C 5.984375 16.078125 5.988281 16.082031 5.988281 16.089844 L 5.988281 17.53125 C 5.988281 17.542969 5.996094 17.550781 6.007812 17.550781 L 7.003906 17.550781 L 7.007812 19 L 7.007812 20.464844 C 7.007812 20.46875 7.011719 20.472656 7.015625 20.472656 L 8 20.472656 L 8 24.84375 L 5.988281 24.84375 L 5.988281 23.414062 C 5.988281 23.410156 5.984375 23.402344 5.984375 23.398438 C 5.980469 23.394531 5.972656 23.394531 5.96875 23.394531 L 4.992188 23.398438 L 4.023438 23.394531 C 4.011719 23.394531 4 23.382812 4 23.371094 L 4 21.933594 C 4 21.929688 4 21.925781 3.996094 21.925781 C 3.996094 21.921875 3.992188 21.921875 3.988281 21.921875 L 3.019531 21.921875 C 3.011719 21.921875 3.007812 21.925781 3.007812 21.933594 L 3.007812 23.382812 C 3.007812 23.386719 3.011719 23.394531 3.019531 23.394531 L 3.976562 23.394531 C 3.988281 23.394531 4 23.40625 4 23.417969 L 4 24.84375 L 2.011719 24.84375 L 2.011719 23.410156 C 2.011719 23.402344 2.003906 23.394531 1.996094 23.394531 L 1 23.390625 L 0.992188 21.933594 C 0.992188 21.925781 0.988281 21.921875 0.980469 21.921875 L 0 21.921875 L 0 20.472656 L 0.988281 20.472656 C 0.992188 20.472656 0.992188 20.46875 0.992188 20.464844 L 0.992188 19 L 2.011719 19 L 2.011719 20.464844 C 2.011719 20.46875 2.015625 20.472656 2.019531 20.472656 L 3 20.472656 C 3.003906 20.472656 3.007812 20.46875 3.007812 20.464844 L 3.007812 19 L 4.972656 19 C 4.984375 19 4.992188 18.992188 4.992188 18.976562 L 4.996094 17.550781 Z M 5.988281 21.921875 L 5.988281 23.375 C 5.988281 23.386719 5.996094 23.394531 6.007812 23.394531 L 7 23.394531 C 7.003906 23.394531 7.007812 23.390625 7.007812 23.386719 L 7.007812 21.9375 C 7.007812 21.925781 7 21.921875 6.988281 21.921875 L 5.988281 21.921875 L 5.988281 20.484375 C 5.988281 20.476562 5.984375 20.472656 5.976562 20.472656 L 5.003906 20.472656 C 5 20.472656 4.992188 20.476562 4.992188 20.484375 L 4.992188 21.90625 C 4.992188 21.914062 5 21.921875 5.007812 21.921875 Z M 5.988281 21.921875 "/>
<path style=" stroke:none;fill-rule:nonzero;fill:rgb(23.529412%,49.019608%,13.333333%);fill-opacity:1;" d="M 8 16.078125 L 8 19 L 7.007812 19 L 7.003906 17.550781 L 7.007812 16.097656 C 7.007812 16.089844 7.015625 16.078125 7.023438 16.078125 Z M 8 16.078125 "/>
<path style=" stroke:none;fill-rule:nonzero;fill:rgb(49.411765%,20.784314%,5.490196%);fill-opacity:1;" d="M 2.011719 17.535156 L 2.015625 17.542969 C 2.019531 17.546875 2.023438 17.550781 2.03125 17.550781 L 2.976562 17.550781 C 2.976562 17.550781 2.984375 17.550781 2.996094 17.546875 C 3 17.546875 3.003906 17.546875 3.007812 17.546875 L 3.011719 17.550781 C 3.011719 17.554688 3.011719 17.558594 3.007812 17.558594 C 3.007812 17.5625 3.003906 17.566406 3.003906 17.570312 L 3.003906 19 L 2.011719 19 L 2.011719 17.550781 C 2.015625 17.542969 2.015625 17.539062 2.011719 17.535156 Z M 2.011719 17.535156 "/>
<path style=" stroke:none;fill-rule:nonzero;fill:rgb(74.509804%,31.372549%,7.843137%);fill-opacity:1;" d="M 0 17.550781 L 0.96875 17.554688 C 0.980469 17.554688 0.992188 17.5625 0.992188 17.578125 L 0.992188 19 L 0 19 Z M 0 17.550781 "/>
<path style=" stroke:none;fill-rule:nonzero;fill:rgb(36.078431%,12.156863%,0%);fill-opacity:1;" d="M 3.011719 17.550781 L 4 17.550781 C 3.996094 17.558594 3.996094 17.558594 4.003906 17.554688 L 4 19 L 3.007812 19 C 3.007812 19 3.003906 19 3.003906 19 L 3.003906 17.570312 C 3.003906 17.566406 3.007812 17.5625 3.007812 17.558594 C 3.011719 17.558594 3.011719 17.554688 3.011719 17.550781 Z M 3.011719 17.550781 "/>
<path style=" stroke:none;fill-rule:nonzero;fill:rgb(15.294118%,32.54902%,9.019608%);fill-opacity:1;" d="M 4.996094 17.550781 L 4.992188 18.976562 C 4.992188 18.992188 4.984375 19 4.972656 19 L 4 19 L 4.003906 17.554688 Z M 4.996094 17.550781 "/>
<path style=" stroke:none;fill-rule:nonzero;fill:rgb(36.078431%,12.156863%,0%);fill-opacity:1;" d="M 7.007812 19 L 8 19 L 8 20.472656 L 7.015625 20.472656 C 7.011719 20.472656 7.007812 20.46875 7.007812 20.464844 Z M 7.007812 19 "/>
<path style=" stroke:none;fill-rule:nonzero;fill:rgb(36.078431%,12.156863%,0%);fill-opacity:1;" d="M 0 19 L 0.992188 19 L 0.992188 20.464844 C 0.992188 20.46875 0.992188 20.472656 0.988281 20.472656 L 0 20.472656 Z M 0 19 "/>
<path style=" stroke:none;fill-rule:nonzero;fill:rgb(74.509804%,31.372549%,7.843137%);fill-opacity:1;" d="M 2.011719 19 L 3.003906 19 C 3.003906 19 3.007812 19 3.007812 19 L 3.007812 20.464844 C 3.007812 20.46875 3.003906 20.472656 3 20.472656 L 2.019531 20.472656 C 2.015625 20.472656 2.011719 20.46875 2.011719 20.464844 Z M 2.011719 19 "/>
<path style=" stroke:none;fill-rule:nonzero;fill:rgb(74.509804%,31.372549%,7.843137%);fill-opacity:1;" d="M 5.988281 21.921875 L 5.007812 21.921875 C 5 21.921875 4.992188 21.914062 4.992188 21.90625 L 4.992188 20.484375 C 4.992188 20.476562 5 20.472656 5.003906 20.472656 L 5.976562 20.472656 C 5.984375 20.472656 5.988281 20.476562 5.988281 20.484375 Z M 5.988281 21.921875 "/>
<path style=" stroke:none;fill-rule:nonzero;fill:rgb(36.078431%,12.156863%,0%);fill-opacity:1;" d="M 5.988281 21.921875 L 6.988281 21.921875 C 7 21.921875 7.007812 21.925781 7.007812 21.9375 L 7.007812 23.386719 C 7.007812 23.390625 7.003906 23.394531 7 23.394531 L 6.007812 23.394531 C 5.996094 23.394531 5.988281 23.386719 5.988281 23.375 Z M 5.988281 21.921875 "/>
<path style=" stroke:none;fill-rule:nonzero;fill:rgb(74.509804%,31.372549%,7.843137%);fill-opacity:1;" d="M 0 21.921875 L 0.980469 21.921875 C 0.988281 21.921875 0.992188 21.925781 0.992188 21.933594 L 1 23.390625 C 1.003906 23.40625 1 23.40625 0.992188 23.394531 L 0 23.390625 Z M 0 21.921875 "/>
<path style=" stroke:none;fill-rule:nonzero;fill:rgb(74.509804%,31.372549%,7.843137%);fill-opacity:1;" d="M 4.992188 23.398438 L 4.988281 24.84375 L 4 24.84375 L 4 23.417969 C 4 23.40625 3.988281 23.394531 3.976562 23.394531 L 3.019531 23.394531 C 3.011719 23.394531 3.007812 23.386719 3.007812 23.382812 L 3.007812 21.933594 C 3.007812 21.925781 3.011719 21.921875 3.019531 21.921875 L 3.988281 21.921875 C 3.992188 21.921875 3.996094 21.921875 3.996094 21.925781 C 4 21.925781 4 21.929688 4 21.933594 L 4 23.371094 C 4 23.382812 4.011719 23.394531 4.023438 23.394531 Z M 4.992188 23.398438 "/>
<path style=" stroke:none;fill-rule:nonzero;fill:rgb(49.411765%,20.784314%,5.490196%);fill-opacity:1;" d="M 0 23.390625 L 0.992188 23.394531 L 0.992188 24.84375 L 0 24.84375 Z M 0 23.390625 "/>
<path style=" stroke:none;fill-rule:nonzero;fill:rgb(36.078431%,12.156863%,0%);fill-opacity:1;" d="M 1 23.390625 L 1.996094 23.394531 C 2.003906 23.394531 2.011719 23.402344 2.011719 23.410156 L 2.011719 24.84375 L 0.992188 24.84375 L 0.992188 23.394531 C 1 23.40625 1.003906 23.40625 1 23.390625 Z M 1 23.390625 "/>
<path style=" stroke:none;fill-rule:nonzero;fill:rgb(36.078431%,12.156863%,0%);fill-opacity:1;" d="M 5.988281 24.84375 L 4.988281 24.84375 L 4.992188 23.398438 L 5.96875 23.394531 C 5.972656 23.394531 5.980469 23.394531 5.984375 23.398438 C 5.984375 23.402344 5.988281 23.410156 5.988281 23.414062 Z M 5.988281 24.84375 "/>
<path style=" stroke:none;fill-rule:nonzero;fill:rgb(100%,100%,100%);fill-opacity:1;" d="M 0 24.84375 L 8 24.84375 L 8 26.3125 L 5.988281 26.316406 L 4.996094 26.3125 L 4 26.316406 L 0 26.3125 Z M 0 24.84375 "/>
<path style=" stroke:none;fill-rule:nonzero;fill:rgb(49.411765%,20.784314%,5.490196%);fill-opacity:1;" d="M 0 26.3125 L 4 26.316406 L 4 27.753906 C 4 27.761719 4.003906 27.765625 4.011719 27.765625 L 4.992188 27.761719 L 5.957031 27.761719 C 5.976562 27.761719 5.988281 27.773438 5.988281 27.792969 L 5.988281 29.230469 C 5.988281 29.234375 5.992188 29.238281 5.996094 29.238281 L 6.996094 29.238281 C 7.003906 29.238281 7.007812 29.230469 7.007812 29.222656 L 7.007812 27.777344 C 7.007812 27.769531 7 27.761719 6.992188 27.761719 L 6.019531 27.761719 C 6 27.761719 5.988281 27.75 5.988281 27.734375 L 5.988281 26.316406 L 8 26.3125 L 8 32.15625 L 7.019531 32.15625 C 7.011719 32.15625 7.007812 32.160156 7.007812 32.167969 L 7.007812 35.066406 C 7.007812 35.074219 7.011719 35.078125 7.019531 35.078125 L 8 35.082031 L 8 38 L 7.003906 38 L 7.003906 36.535156 C 7.003906 36.53125 7.003906 36.53125 7.003906 36.53125 C 7.003906 36.527344 7 36.527344 7 36.527344 L 6.011719 36.527344 C 6.007812 36.527344 6.003906 36.527344 6.003906 36.523438 C 6 36.523438 5.996094 36.523438 5.992188 36.523438 L 5.988281 35.089844 C 5.988281 35.085938 5.980469 35.078125 5.976562 35.078125 L 5.003906 35.078125 C 4.996094 35.078125 4.992188 35.082031 4.992188 35.089844 L 4.992188 36.507812 C 4.992188 36.519531 5 36.527344 5.011719 36.527344 L 5.988281 36.527344 L 5.988281 38 L 4 38 L 4 36.539062 C 4 36.53125 3.996094 36.527344 3.988281 36.527344 L 3.019531 36.527344 C 3.011719 36.527344 3.003906 36.53125 3.003906 36.539062 L 3.003906 38 L 0.996094 38 L 0.996094 36.542969 C 0.996094 36.535156 0.988281 36.527344 0.980469 36.527344 L 0 36.527344 L 0 35.078125 L 0.988281 35.078125 C 0.992188 35.078125 0.992188 35.074219 0.992188 35.070312 L 0.996094 33.605469 L 0.992188 32.164062 C 0.992188 32.160156 0.988281 32.15625 0.984375 32.15625 L 0 32.15625 L 0 30.683594 L 2.007812 30.683594 C 2.007812 30.683594 2.011719 30.683594 2.011719 30.679688 L 2.011719 29.25 C 2.011719 29.242188 2.007812 29.238281 2 29.238281 C 1.671875 29.238281 1.34375 29.238281 1.011719 29.234375 C 1.007812 29.230469 1.003906 29.234375 0.992188 29.242188 L 0 29.234375 Z M 3.007812 27.78125 C 3.007812 27.769531 3 27.761719 2.988281 27.761719 L 2.027344 27.761719 C 2.019531 27.761719 2.011719 27.769531 2.011719 27.78125 L 2.011719 29.21875 C 2.011719 29.230469 2.019531 29.238281 2.027344 29.238281 L 2.988281 29.238281 C 3 29.238281 3.007812 29.230469 3.007812 29.21875 Z M 4.996094 32.15625 L 5.980469 32.15625 C 5.984375 32.15625 5.988281 32.15625 5.988281 32.152344 L 5.988281 30.695312 C 5.988281 30.691406 5.980469 30.683594 5.976562 30.683594 L 4.992188 30.691406 C 4.988281 30.691406 4.988281 30.6875 4.984375 30.6875 C 4.984375 30.683594 4.984375 30.683594 4.980469 30.683594 L 4.007812 30.683594 C 4.003906 30.683594 4 30.6875 4 30.691406 L 4 32.136719 C 4 32.148438 4.007812 32.15625 4.019531 32.15625 Z M 4 32.167969 C 4 32.160156 3.996094 32.15625 3.992188 32.15625 L 3.015625 32.15625 C 3.011719 32.15625 3.007812 32.160156 3.007812 32.167969 L 3.007812 33.597656 C 3.007812 33.601562 3.011719 33.605469 3.015625 33.605469 L 3.992188 33.605469 C 3.996094 33.605469 4 33.601562 4 33.597656 Z M 3.007812 33.617188 C 3.007812 33.613281 3 33.605469 2.992188 33.605469 L 2.023438 33.605469 C 2.019531 33.605469 2.011719 33.613281 2.011719 33.617188 L 2.011719 35.066406 C 2.011719 35.074219 2.019531 35.078125 2.023438 35.078125 L 2.992188 35.078125 C 3 35.078125 3.007812 35.074219 3.007812 35.066406 Z M 3.007812 33.617188 "/>
<path style=" stroke:none;fill-rule:nonzero;fill:rgb(74.509804%,31.372549%,7.843137%);fill-opacity:1;" d="M 5.988281 26.316406 L 5.988281 27.734375 C 5.988281 27.75 6 27.761719 6.019531 27.761719 L 6.992188 27.761719 C 7 27.761719 7.007812 27.769531 7.007812 27.777344 L 7.007812 29.222656 C 7.007812 29.230469 7.003906 29.238281 6.996094 29.238281 L 5.996094 29.238281 C 5.992188 29.238281 5.988281 29.234375 5.988281 29.230469 L 5.988281 27.792969 C 5.988281 27.773438 5.976562 27.761719 5.957031 27.761719 L 4.992188 27.761719 L 4.996094 26.3125 Z M 5.988281 26.316406 "/>
<path style=" stroke:none;fill-rule:nonzero;fill:rgb(36.078431%,12.156863%,0%);fill-opacity:1;" d="M 4 26.316406 L 4.996094 26.3125 L 4.992188 27.761719 L 4.011719 27.765625 C 4.003906 27.765625 4 27.761719 4 27.753906 Z M 4 26.316406 "/>
<path style=" stroke:none;fill-rule:nonzero;fill:rgb(74.509804%,31.372549%,7.843137%);fill-opacity:1;" d="M 2.027344 27.761719 L 2.988281 27.761719 C 3 27.761719 3.007812 27.769531 3.007812 27.78125 L 3.007812 29.21875 C 3.007812 29.230469 3 29.238281 2.988281 29.238281 L 2.027344 29.238281 C 2.019531 29.238281 2.011719 29.230469 2.011719 29.21875 L 2.011719 27.78125 C 2.011719 27.769531 2.019531 27.761719 2.027344 27.761719 Z M 2.027344 27.761719 "/>
<path style=" stroke:none;fill-rule:nonzero;fill:rgb(74.509804%,31.372549%,7.843137%);fill-opacity:1;" d="M 0 29.234375 L 0.992188 29.242188 L 0.996094 30.683594 L 0 30.683594 Z M 0 29.234375 "/>
<path style=" stroke:none;fill-rule:nonzero;fill:rgb(36.078431%,12.156863%,0%);fill-opacity:1;" d="M 0.996094 30.683594 L 0.992188 29.242188 C 1.003906 29.234375 1.007812 29.230469 1.011719 29.234375 C 1.34375 29.238281 1.671875 29.238281 2 29.238281 C 2.007812 29.238281 2.011719 29.242188 2.011719 29.25 L 2.011719 30.679688 C 2.011719 30.683594 2.007812 30.683594 2.007812 30.683594 Z M 0.996094 30.683594 "/>
<path style=" stroke:none;fill-rule:nonzero;fill:rgb(74.509804%,31.372549%,7.843137%);fill-opacity:1;" d="M 4.992188 30.691406 L 4.996094 32.15625 L 4.019531 32.15625 C 4.007812 32.15625 4 32.148438 4 32.136719 L 4 30.691406 C 4 30.6875 4.003906 30.683594 4.007812 30.683594 L 4.980469 30.683594 C 4.984375 30.683594 4.984375 30.683594 4.984375 30.6875 C 4.988281 30.6875 4.988281 30.691406 4.992188 30.691406 Z M 4.992188 30.691406 "/>
<path style=" stroke:none;fill-rule:nonzero;fill:rgb(36.078431%,12.156863%,0%);fill-opacity:1;" d="M 4.996094 32.15625 L 4.992188 30.691406 L 5.976562 30.683594 C 5.980469 30.683594 5.988281 30.691406 5.988281 30.695312 L 5.988281 32.152344 C 5.988281 32.15625 5.984375 32.15625 5.980469 32.15625 Z M 4.996094 32.15625 "/>
<path style=" stroke:none;fill-rule:nonzero;fill:rgb(74.509804%,31.372549%,7.843137%);fill-opacity:1;" d="M 0 32.15625 L 0.984375 32.15625 C 0.988281 32.15625 0.992188 32.160156 0.992188 32.164062 L 0.996094 33.605469 L 0 33.605469 Z M 0 32.15625 "/>
<path style=" stroke:none;fill-rule:nonzero;fill:rgb(74.509804%,31.372549%,7.843137%);fill-opacity:1;" d="M 8 32.15625 L 8 33.605469 L 7.007812 33.605469 L 7.007812 32.167969 C 7.007812 32.160156 7.011719 32.15625 7.019531 32.15625 Z M 8 32.15625 "/>
<path style=" stroke:none;fill-rule:nonzero;fill:rgb(36.078431%,12.156863%,0%);fill-opacity:1;" d="M 3.015625 32.15625 L 3.992188 32.15625 C 3.996094 32.15625 4 32.160156 4 32.167969 L 4 33.597656 C 4 33.601562 3.996094 33.605469 3.992188 33.605469 L 3.015625 33.605469 C 3.011719 33.605469 3.007812 33.601562 3.007812 33.597656 L 3.007812 32.167969 C 3.007812 32.160156 3.011719 32.15625 3.015625 32.15625 Z M 3.015625 32.15625 "/>
<path style=" stroke:none;fill-rule:nonzero;fill:rgb(36.078431%,12.156863%,0%);fill-opacity:1;" d="M 0 33.605469 L 0.996094 33.605469 L 0.992188 35.070312 C 0.992188 35.074219 0.992188 35.078125 0.988281 35.078125 L 0 35.078125 Z M 0 33.605469 "/>
<path style=" stroke:none;fill-rule:nonzero;fill:rgb(74.509804%,31.372549%,7.843137%);fill-opacity:1;" d="M 2.023438 33.605469 L 2.992188 33.605469 C 3 33.605469 3.007812 33.613281 3.007812 33.617188 L 3.007812 35.066406 C 3.007812 35.074219 3 35.078125 2.992188 35.078125 L 2.023438 35.078125 C 2.019531 35.078125 2.011719 35.074219 2.011719 35.066406 L 2.011719 33.617188 C 2.011719 33.613281 2.019531 33.605469 2.023438 33.605469 Z M 2.023438 33.605469 "/>
<path style=" stroke:none;fill-rule:nonzero;fill:rgb(36.078431%,12.156863%,0%);fill-opacity:1;" d="M 7.007812 33.605469 L 8 33.605469 L 8 35.082031 L 7.019531 35.078125 C 7.011719 35.078125 7.007812 35.074219 7.007812 35.066406 Z M 7.007812 33.605469 "/>
<path style=" stroke:none;fill-rule:nonzero;fill:rgb(74.509804%,31.372549%,7.843137%);fill-opacity:1;" d="M 5.992188 36.523438 C 5.996094 36.535156 5.996094 36.539062 5.988281 36.527344 L 5.011719 36.527344 C 5 36.527344 4.992188 36.519531 4.992188 36.507812 L 4.992188 35.089844 C 4.992188 35.082031 4.996094 35.078125 5.003906 35.078125 L 5.976562 35.078125 C 5.980469 35.078125 5.988281 35.085938 5.988281 35.089844 Z M 5.992188 36.523438 "/>
<path style=" stroke:none;fill-rule:nonzero;fill:rgb(36.078431%,12.156863%,0%);fill-opacity:1;" d="M 5.992188 36.523438 C 5.996094 36.523438 6 36.523438 6.003906 36.523438 C 6.003906 36.527344 6.007812 36.527344 6.011719 36.527344 L 7 36.527344 C 7 36.527344 7.003906 36.527344 7.003906 36.53125 C 7.003906 36.53125 7.003906 36.53125 7.003906 36.535156 L 7.003906 38 L 5.988281 38 L 5.988281 36.527344 C 5.996094 36.539062 5.996094 36.535156 5.992188 36.523438 Z M 5.992188 36.523438 "/>
<path style=" stroke:none;fill-rule:nonzero;fill:rgb(74.509804%,31.372549%,7.843137%);fill-opacity:1;" d="M 0 36.527344 L 0.980469 36.527344 C 0.988281 36.527344 0.996094 36.535156 0.996094 36.542969 L 0.996094 38 L 0 38 Z M 0 36.527344 "/>
<path style=" stroke:none;fill-rule:nonzero;fill:rgb(74.509804%,31.372549%,7.843137%);fill-opacity:1;" d="M 4 38 L 3.003906 38 L 3.003906 36.539062 C 3.003906 36.53125 3.011719 36.527344 3.019531 36.527344 L 3.988281 36.527344 C 3.996094 36.527344 4 36.53125 4 36.539062 Z M 4 38 "/>
</g>
</svg>
