<?xml version="1.0" encoding="UTF-8" standalone="no"?>
<!DOCTYPE svg PUBLIC "-//W3C//DTD SVG 1.1//EN" "http://www.w3.org/Graphics/SVG/1.1/DTD/svg11.dtd">
<svg xmlns="http://www.w3.org/2000/svg" version="1.1" viewBox="0.00 0.00 330.00 1574.00">
<g stroke-width="2.00" fill="none" stroke-linecap="butt">
<path stroke="#459228" vector-effect="non-scaling-stroke" d="
  M 82.87 1.01
  L 82.97 61.00"
/>
<path stroke="#6ec051" vector-effect="non-scaling-stroke" d="
  M 82.97 61.00
  L 83.00 121.22
  A 0.78 0.78 0.0 0 0 83.78 122.00
  L 123.27 121.99
  A 0.72 0.72 0.0 0 0 123.99 121.27
  L 123.76 61.01"
/>
<path stroke="#459228" vector-effect="non-scaling-stroke" d="
  M 123.76 61.01
  L 124.00 1.01"
/>
<path stroke="#6ec051" vector-effect="non-scaling-stroke" d="
  M 164.98 1.01
  L 165.00 60.47
  A 0.53 0.52 90.0 0 0 165.52 61.00
  L 206.00 61.02"
/>
<path stroke="#459228" vector-effect="non-scaling-stroke" d="
  M 206.00 61.02
  L 246.60 60.99
  A 0.40 0.40 0.0 0 0 247.00 60.59
  L 247.02 1.02"
/>
<path stroke="#459228" vector-effect="non-scaling-stroke" d="
  M 330.00 243.01
  L 289.46 243.02
  A 0.46 0.46 0.0 0 0 289.00 243.48
  L 289.00 302.49
  A 0.48 0.47 90.0 0 0 289.47 302.97
  L 330.00 302.94"
/>
<path stroke="#6ec051" vector-effect="non-scaling-stroke" d="
  M 330.00 423.95
  L 289.66 423.98
  A 0.65 0.64 0.0 0 0 289.01 424.62
  L 289.04 484.98"
/>
<path stroke="#a7d397" vector-effect="non-scaling-stroke" d="
  M 289.04 484.98
  L 206.03 484.99"
/>
<path stroke="#459228" vector-effect="non-scaling-stroke" d="
  M 206.03 484.99
  L 206.01 424.47
  Q 206.01 424.01 205.55 424.01
  L 165.76 424.00
  A 0.73 0.73 0.0 0 0 165.03 424.73
  L 164.71 484.99"
/>
<path stroke="#a7d397" vector-effect="non-scaling-stroke" d="
  M 164.71 484.99
  L 0.00 484.99"
/>
<path stroke="#459228" vector-effect="non-scaling-stroke" d="
  M 0.00 302.98
  L 40.68 302.99
  A 0.29 0.29 0.0 0 0 40.97 302.70
  L 41.20 243.00"
/>
<path stroke="#6ec051" vector-effect="non-scaling-stroke" d="
  M 41.20 243.00
  L 83.00 243.01"
/>
<path stroke="#459228" vector-effect="non-scaling-stroke" d="
  M 83.00 243.01
  L 124.00 242.79"
/>
<path stroke="#6ec051" vector-effect="non-scaling-stroke" d="
  M 124.00 242.79
  L 164.72 242.98
  A 0.27 0.27 0.0 0 0 165.00 242.71
  L 165.00 182.29
  A 0.26 0.26 0.0 0 0 164.74 182.03
  L 124.00 182.06"
/>
<path stroke="#459228" vector-effect="non-scaling-stroke" d="
  M 124.00 182.06
  L 83.00 182.02"
/>
<path stroke="#6ec051" vector-effect="non-scaling-stroke" d="
  M 83.00 182.02
  L 41.56 182.03
  A 0.57 0.56 0.0 0 0 40.99 182.59
  L 40.99 242.93"
/>
<path stroke="#459228" vector-effect="non-scaling-stroke" d="
  M 40.99 242.93
  L 0.00 242.93"
/>
<path stroke="#459228" vector-effect="non-scaling-stroke" d="
  M 0.00 121.96
  L 40.20 122.00
  Q 40.99 122.00 40.99 121.22
  L 41.00 61.53
  A 0.54 0.54 0.0 0 0 40.46 60.99
  L 0.00 60.92"
/>
<path stroke="#459228" vector-effect="non-scaling-stroke" d="
  M 288.9380 61.6335
  A 0.67 0.67 0.0 0 0 288.2668 60.9646
  L 247.6869 61.0355
  A 0.67 0.67 0.0 0 0 247.0180 61.7066
  L 247.1220 121.3065
  A 0.67 0.67 0.0 0 0 247.7932 121.9754
  L 288.3731 121.9045
  A 0.67 0.67 0.0 0 0 289.0420 121.2334
  L 288.9380 61.6335"
/>
<path stroke="#459228" vector-effect="non-scaling-stroke" d="
  M 205.94 122.70
  A 0.68 0.68 0.0 0 0 205.26 122.02
  L 165.68 122.02
  A 0.68 0.68 0.0 0 0 165.00 122.70
  L 165.00 181.32
  A 0.68 0.68 0.0 0 0 165.68 182.00
  L 205.26 182.00
  A 0.68 0.68 0.0 0 0 205.94 181.32
  L 205.94 122.70"
/>
<path stroke="#6ec051" vector-effect="non-scaling-stroke" d="
  M 289.00 182.54
  A 0.54 0.54 0.0 0 0 288.46 182.00
  L 247.54 182.00
  A 0.54 0.54 0.0 0 0 247.00 182.54
  L 247.00 242.46
  A 0.54 0.54 0.0 0 0 247.54 243.00
  L 288.46 243.00
  A 0.54 0.54 0.0 0 0 289.00 242.46
  L 289.00 182.54"
/>
<path stroke="#459228" vector-effect="non-scaling-stroke" d="
  M 205.98 243.62
  A 0.62 0.62 0.0 0 0 205.36 243.00
  L 165.62 243.00
  A 0.62 0.62 0.0 0 0 165.00 243.62
  L 165.00 302.38
  A 0.62 0.62 0.0 0 0 165.62 303.00
  L 205.36 303.00
  A 0.62 0.62 0.0 0 0 205.98 302.38
  L 205.98 243.62"
/>
<path stroke="#459228" vector-effect="non-scaling-stroke" d="
  M 83.00 423.99
  L 123.74 423.99
  A 0.26 0.25 -0.0 0 0 124.00 423.74
  L 124.00 364.51
  A 0.51 0.51 0.0 0 0 123.49 364.00
  L 83.00 364.22"
/>
<path stroke="#6ec051" vector-effect="non-scaling-stroke" d="
  M 83.00 364.22
  L 41.50 364.01
  A 0.50 0.50 0.0 0 0 41.00 364.51
  L 41.00 423.27
  Q 41.00 423.99 41.72 423.99
  L 83.00 423.99"
/>
<path stroke="#65ab4b" vector-effect="non-scaling-stroke" d="
  M 83.00 364.22
  L 83.00 423.99"
/>
<path stroke="#6ec051" vector-effect="non-scaling-stroke" d="
  M 247.00 364.68
  A 0.68 0.68 0.0 0 0 246.32 364.00
  L 206.66 364.00
  A 0.68 0.68 0.0 0 0 205.98 364.68
  L 205.98 423.32
  A 0.68 0.68 0.0 0 0 206.66 424.00
  L 246.32 424.00
  A 0.68 0.68 0.0 0 0 247.00 423.32
  L 247.00 364.68"
/>
<path stroke="#65ab4b" vector-effect="non-scaling-stroke" d="
  M 123.76 61.01
  L 82.97 61.00"
/>
<path stroke="#65ab4b" vector-effect="non-scaling-stroke" d="
  M 205.97 1.01
  L 206.00 61.02"
/>
<path stroke="#65ab4b" vector-effect="non-scaling-stroke" d="
  M 83.00 182.02
  L 83.00 243.01"
/>
<path stroke="#65ab4b" vector-effect="non-scaling-stroke" d="
  M 41.20 243.00
  Q 40.97 243.00 40.99 242.93"
/>
<path stroke="#65ab4b" vector-effect="non-scaling-stroke" d="
  M 124.00 182.06
  L 124.00 242.79"
/>
<path stroke="#9ebe91" vector-effect="non-scaling-stroke" d="
  M 206.03 484.99
  L 164.71 484.99"
/>
<path stroke="#c7ecb9" vector-effect="non-scaling-stroke" d="
  M 330.00 484.95
  L 289.04 484.98"
/>
<path stroke="#a7d397" vector-effect="non-scaling-stroke" d="
  M 330.00 544.99
  L 206.09 544.99"
/>
<path stroke="#9ebe91" vector-effect="non-scaling-stroke" d="
  M 206.09 544.99
  L 164.91 544.99"
/>
<path stroke="#a7d397" vector-effect="non-scaling-stroke" d="
  M 164.91 544.99
  L 0.00 544.98"
/>
<path stroke="#459228" vector-effect="non-scaling-stroke" d="
  M 164.91 544.99
  L 165.00 605.75
  A 0.27 0.27 0.0 0 0 165.27 606.02
  L 205.25 605.95
  A 0.68 0.68 0.0 0 0 205.93 605.27
  L 206.09 544.99"
/>
<path stroke="#459228" vector-effect="non-scaling-stroke" d="
  M 330.00 665.99
  L 289.78 666.04
  A 0.78 0.77 90.0 0 0 289.01 666.82
  L 288.99 727.01"
/>
<path stroke="#666e1e" vector-effect="non-scaling-stroke" d="
  M 288.99 727.01
  L 247.77 726.99
  A 0.76 0.75 -0.0 0 1 247.01 726.24
  L 247.01 666.52
  Q 247.01 666.02 246.50 666.01
  L 205.77 665.94"
/>
<path stroke="#459228" vector-effect="non-scaling-stroke" d="
  M 205.77 665.94
  L 165.88 666.05
  Q 165.02 666.05 165.02 666.91
  L 165.02 727.01"
/>
<path stroke="#556317" vector-effect="non-scaling-stroke" d="
  M 165.02 727.01
  L 124.28 727.00"
/>
<path stroke="#666e1e" vector-effect="non-scaling-stroke" d="
  M 124.28 727.00
  L 124.00 726.79"
/>
<path stroke="#867c21" vector-effect="non-scaling-stroke" d="
  M 124.00 726.79
  L 123.99 666.28"
/>
<path stroke="#459228" vector-effect="non-scaling-stroke" d="
  M 123.99 666.28
  Q 124.34 665.53 124.02 665.91"
/>
<path stroke="#6ec051" vector-effect="non-scaling-stroke" d="
  M 124.02 665.91
  L 164.54 665.93
  Q 165.00 665.93 165.00 665.47
  L 165.00 606.28
  A 0.26 0.25 0.0 0 0 164.74 606.03
  L 124.01 606.06"
/>
<path stroke="#459228" vector-effect="non-scaling-stroke" d="
  M 124.01 606.06
  L 82.99 606.02"
/>
<path stroke="#6ec051" vector-effect="non-scaling-stroke" d="
  M 82.99 606.02
  L 41.66 606.03
  Q 40.99 606.03 40.99 606.70
  L 41.03 665.13
  A 0.81 0.80 90.0 0 0 41.83 665.94
  L 82.72 665.93"
/>
<path stroke="#459228" vector-effect="non-scaling-stroke" d="
  M 82.72 665.93
  Q 82.91 666.02 83.04 666.54"
/>
<path stroke="#867c21" vector-effect="non-scaling-stroke" d="
  M 83.04 666.54
  L 83.01 726.28"
/>
<path stroke="#666e1e" vector-effect="non-scaling-stroke" d="
  M 83.01 726.28
  Q 83.11 726.57 82.99 727.00"
/>
<path stroke="#459228" vector-effect="non-scaling-stroke" d="
  M 82.99 727.00
  L 41.74 726.99
  A 0.75 0.74 90.0 0 1 41.00 726.24
  L 41.01 666.51
  A 0.49 0.49 0.0 0 0 40.52 666.02
  Q 22.52 665.93 4.77 666.07
  Q 2.32 666.09 0.00 665.62"
/>
<path stroke="#6ec051" vector-effect="non-scaling-stroke" d="
  M 289.00 606.67
  A 0.68 0.68 0.0 0 0 288.32 605.99
  L 247.68 605.99
  A 0.68 0.68 0.0 0 0 247.00 606.67
  L 247.00 665.31
  A 0.68 0.68 0.0 0 0 247.68 665.99
  L 288.32 665.99
  A 0.68 0.68 0.0 0 0 289.00 665.31
  L 289.00 606.67"
/>
<path stroke="#65ab4b" vector-effect="non-scaling-stroke" d="
  M 82.99 606.02
  L 82.94 665.71
  Q 82.94 665.75 82.91 665.77
  Q 82.81 665.85 82.72 665.93"
/>
<path stroke="#65ab4b" vector-effect="non-scaling-stroke" d="
  M 124.01 606.06
  L 124.02 665.91"
/>
<path stroke="#7d671b" vector-effect="non-scaling-stroke" d="
  M 123.99 666.28
  Q 123.69 666.31 123.64 666.12
  Q 123.60 665.98 123.46 665.98
  L 84.38 666.00
  Q 83.94 666.00 83.56 666.23
  L 83.04 666.54"
/>
<path stroke="#5d5918" vector-effect="non-scaling-stroke" d="
  M 82.99 727.00
  L 82.98 787.02"
/>
<path stroke="#7d671b" vector-effect="non-scaling-stroke" d="
  M 82.98 787.02
  Q 83.00 786.98 83.01 786.95"
/>
<path stroke="#5d5918" vector-effect="non-scaling-stroke" d="
  M 83.01 786.95
  L 41.00 786.95"
/>
<path stroke="#7d671b" vector-effect="non-scaling-stroke" d="
  M 41.00 786.95
  L 40.97 728.08
  A 1.02 1.02 0.0 0 0 39.95 727.06
  L 0.00 726.99"
/>
<path stroke="#5d5918" vector-effect="non-scaling-stroke" d="
  M 205.77 665.94
  L 206.01 727.00"
/>
<path stroke="#32681d" vector-effect="non-scaling-stroke" d="
  M 206.01 727.00
  L 165.21 727.21"
/>
<path stroke="#4c4e11" vector-effect="non-scaling-stroke" d="
  M 165.21 727.21
  Q 164.69 727.41 165.02 727.01"
/>
<path stroke="#9e4311" vector-effect="non-scaling-stroke" d="
  M 124.00 726.79
  Q 123.78 726.80 123.60 726.85
  A 1.19 0.08 -15.2 0 1 122.75 727.02
  L 83.77 727.00
  Q 83.37 727.00 83.19 726.64
  L 83.01 726.28"
/>
<path stroke="#5d5918" vector-effect="non-scaling-stroke" d="
  M 288.99 727.01
  L 289.02 786.97"
/>
<path stroke="#6d2a07" vector-effect="non-scaling-stroke" d="
  M 289.02 786.97
  L 289.02 847.61
  A 0.42 0.42 0.0 0 0 289.43 848.03
  L 330.00 848.04"
/>
<path stroke="#bf9a87" vector-effect="non-scaling-stroke" d="
  M 330.00 1029.01
  L 247.02 1029.00"
/>
<path stroke="#6d2a07" vector-effect="non-scaling-stroke" d="
  M 247.02 1029.00
  L 247.02 969.81
  A 0.79 0.79 0.0 0 0 246.22 969.02
  L 205.97 969.21"
/>
<path stroke="#9e4311" vector-effect="non-scaling-stroke" d="
  M 205.97 969.21
  L 166.03 969.01
  A 0.99 0.99 0.0 0 1 165.04 968.02
  L 165.04 908.52
  A 0.52 0.51 0.5 0 0 164.52 908.00
  L 124.50 908.00
  Q 124.00 908.00 124.00 908.50
  L 124.00 968.50
  A 0.50 0.50 0.0 0 0 124.50 969.00
  L 164.00 969.00
  A 1.01 1.01 0.0 0 1 165.01 970.01
  L 165.08 1028.99"
/>
<path stroke="#bf9a87" vector-effect="non-scaling-stroke" d="
  M 165.08 1028.99
  L 83.05 1028.99"
/>
<path stroke="#6d2a07" vector-effect="non-scaling-stroke" d="
  M 83.05 1028.99
  L 83.00 969.69
  A 0.66 0.66 0.0 0 0 82.34 969.03
  L 41.21 968.79"
/>
<path stroke="#9e4311" vector-effect="non-scaling-stroke" d="
  M 41.21 968.79
  L 40.97 908.57
  Q 40.97 907.98 40.37 907.98
  L 0.00 907.96"
/>
<path stroke="#6d2a07" vector-effect="non-scaling-stroke" d="
  M 0.00 847.94
  L 40.70 847.99
  A 0.31 0.30 -90.0 0 0 41.00 847.68
  L 41.00 786.95"
/>
<path stroke="#9e4311" vector-effect="non-scaling-stroke" d="
  M 83.01 786.95
  L 83.00 847.74
  A 0.27 0.26 0.0 0 0 83.27 848.00
  L 123.73 848.01
  A 0.27 0.27 0.0 0 0 124.00 847.74
  L 124.00 787.02"
/>
<path stroke="#6d2a07" vector-effect="non-scaling-stroke" d="
  M 124.00 787.02
  L 165.02 787.01"
/>
<path stroke="#534413" vector-effect="non-scaling-stroke" d="
  M 165.02 787.01
  L 205.05 787.06
  A 0.95 0.95 0.0 0 0 206.00 786.11
  L 206.01 727.00"
/>
<path stroke="#6d2a07" vector-effect="non-scaling-stroke" d="
  M 246.99 907.99
  L 247.00 968.25
  A 0.76 0.75 90.0 0 0 247.75 969.01
  L 288.75 969.00
  A 0.25 0.25 0.0 0 0 289.00 968.75
  L 289.00 908.73
  Q 289.00 908.00 288.27 908.00
  L 246.99 907.99"
/>
<path stroke="#9e4311" vector-effect="non-scaling-stroke" d="
  M 246.99 907.99
  L 247.02 848.51
  A 0.52 0.51 -0.0 0 0 246.50 848.00
  L 206.49 848.00
  A 0.51 0.51 0.0 0 0 205.98 848.51
  L 205.96 907.45
  A 0.56 0.55 0.0 0 0 206.52 908.00
  L 246.99 907.99"
/>
<path stroke="#4c4e11" vector-effect="non-scaling-stroke" d="
  M 330.00 787.01
  L 289.02 786.97"
/>
<path stroke="#6d2a07" vector-effect="non-scaling-stroke" d="
  M 124.28 727.00
  Q 124.25 727.17 124.15 727.32
  Q 123.98 727.55 123.98 727.83
  L 123.98 787.02"
/>
<path stroke="#9e4311" vector-effect="non-scaling-stroke" d="
  M 123.98 787.02
  L 82.98 787.02"
/>
<path stroke="#8d380a" vector-effect="non-scaling-stroke" d="
  M 41.00 786.95
  L 0.00 786.95"
/>
<path stroke="#42390c" vector-effect="non-scaling-stroke" d="
  M 165.21 727.21
  L 165.02 787.01"
/>
<path stroke="#8d380a" vector-effect="non-scaling-stroke" d="
  M 124.00 787.02
  Q 123.99 787.02 123.98 787.02"
/>
<path stroke="#8d380a" vector-effect="non-scaling-stroke" d="
  M 41.21 968.79
  Q 41.48 969.79 40.99 968.99"
/>
<path stroke="#9e4311" vector-effect="non-scaling-stroke" d="
  M 40.99 968.99
  L 0.00 968.90"
/>
<path stroke="#8d380a" vector-effect="non-scaling-stroke" d="
  M 205.97 969.21
  L 205.79 1029.00"
/>
<path stroke="#dfa88a" vector-effect="non-scaling-stroke" d="
  M 205.79 1029.00
  L 165.08 1028.99"
/>
<path stroke="#6d2a07" vector-effect="non-scaling-stroke" d="
  M 40.99 968.99
  L 40.98 1029.00"
/>
<path stroke="#bf9a87" vector-effect="non-scaling-stroke" d="
  M 40.98 1029.00
  L 0.00 1029.00"
/>
<path stroke="#ae8f80" vector-effect="non-scaling-stroke" d="
  M 83.05 1028.99
  L 40.98 1029.00"
/>
<path stroke="#ae8f80" vector-effect="non-scaling-stroke" d="
  M 247.02 1029.00
  L 205.79 1029.00"
/>
<path stroke="#bf9a87" vector-effect="non-scaling-stroke" d="
  M 330.00 1089.97
  L 246.97 1089.99"
/>
<path stroke="#dfa88a" vector-effect="non-scaling-stroke" d="
  M 246.97 1089.99
  L 206.04 1089.97"
/>
<path stroke="#ae8f80" vector-effect="non-scaling-stroke" d="
  M 206.04 1089.97
  L 164.94 1089.98"
/>
<path stroke="#bf9a87" vector-effect="non-scaling-stroke" d="
  M 164.94 1089.98
  L 0.00 1089.94"
/>
<path stroke="#6d2a07" vector-effect="non-scaling-stroke" d="
  M 164.94 1089.98
  L 164.99 1149.61
  A 0.43 0.43 0.0 0 0 165.42 1150.04
  L 206.00 1149.97"
/>
<path stroke="#9e4311" vector-effect="non-scaling-stroke" d="
  M 206.00 1149.97
  L 245.76 1149.98
  Q 247.00 1149.98 247.00 1151.23
  L 247.00 1210.70
  A 0.30 0.30 0.0 0 0 247.30 1211.00
  L 288.55 1211.01
  A 0.56 0.55 -90.0 0 0 289.10 1210.45
  L 289.02 1150.50
  A 0.52 0.52 0.0 0 0 288.50 1149.98
  L 248.23 1149.98
  A 1.20 1.19 0.0 0 1 247.03 1148.79
  L 246.97 1089.99"
/>
<path stroke="#9e4311" vector-effect="non-scaling-stroke" d="
  M 330.00 1331.91
  L 289.55 1331.97
  Q 289.00 1331.97 289.00 1332.51
  L 289.00 1392.01"
/>
<path stroke="#6d2a07" vector-effect="non-scaling-stroke" d="
  M 289.00 1392.01
  L 289.00 1452.43
  Q 289.00 1453.01 289.58 1453.01
  L 330.00 1453.06"
/>
<path stroke="#6d2a07" vector-effect="non-scaling-stroke" d="
  M 288.95 1574.00
  L 288.98 1513.30
  A 0.29 0.29 0.0 0 0 288.69 1513.00
  L 248.02 1513.00
  Q 247.80 1513.00 247.61 1512.89
  Q 247.44 1512.80 247.21 1512.79"
/>
<path stroke="#9e4311" vector-effect="non-scaling-stroke" d="
  M 247.21 1512.79
  L 246.99 1453.49
  A 0.49 0.49 0.0 0 0 246.50 1453.00
  L 206.49 1453.00
  Q 205.97 1453.00 205.97 1453.51
  L 205.95 1512.20
  A 0.81 0.81 0.0 0 0 206.76 1513.01
  L 247.00 1513.01"
/>
<path stroke="#6d2a07" vector-effect="non-scaling-stroke" d="
  M 247.00 1513.01
  L 247.00 1574.00"
/>
<path stroke="#9e4311" vector-effect="non-scaling-stroke" d="
  M 165.07 1574.00
  L 165.02 1513.49
  A 0.49 0.49 0.0 0 0 164.53 1513.00
  L 124.48 1513.00
  A 0.49 0.48 -0.0 0 0 123.99 1513.48
  L 123.99 1574.00"
/>
<path stroke="#9e4311" vector-effect="non-scaling-stroke" d="
  M 41.06 1574.00
  L 41.02 1513.59
  A 0.61 0.60 90.0 0 0 40.42 1512.98
  L 0.00 1512.97"
/>
<path stroke="#6d2a07" vector-effect="non-scaling-stroke" d="
  M 0.00 1452.99
  L 40.69 1452.99
  A 0.31 0.31 0.0 0 0 41.00 1452.68
  L 41.03 1392.02"
/>
<path stroke="#9e4311" vector-effect="non-scaling-stroke" d="
  M 41.03 1392.02
  L 40.98 1332.29
  A 0.31 0.31 0.0 0 0 40.67 1331.98
  L 0.00 1331.89"
/>
<path stroke="#9e4311" vector-effect="non-scaling-stroke" d="
  M 0.00 1270.88
  L 41.01 1270.97"
/>
<path stroke="#6d2a07" vector-effect="non-scaling-stroke" d="
  M 41.01 1270.97
  L 82.76 1270.98
  A 0.25 0.25 0.0 0 0 83.01 1270.73
  L 83.00 1211.52
  Q 83.00 1211.00 82.48 1211.00
  Q 62.15 1211.01 41.75 1210.99
  Q 41.50 1210.69 41.00 1211.22"
/>
<path stroke="#9e4311" vector-effect="non-scaling-stroke" d="
  M 41.00 1211.22
  L 0.00 1210.96"
/>
<path stroke="#9e4311" vector-effect="non-scaling-stroke" d="
  M 124.01 1150.67
  A 0.69 0.69 0.0 0 0 123.32 1149.98
  L 83.70 1149.98
  A 0.69 0.69 0.0 0 0 83.01 1150.67
  L 83.01 1210.31
  A 0.69 0.69 0.0 0 0 83.70 1211.00
  L 123.32 1211.00
  A 0.69 0.69 0.0 0 0 124.01 1210.31
  L 124.01 1150.67"
/>
<path stroke="#6d2a07" vector-effect="non-scaling-stroke" d="
  M 206.01 1331.99
  L 246.74 1331.99
  A 0.26 0.26 0.0 0 0 247.00 1331.73
  L 247.00 1271.50
  A 0.53 0.52 0.0 0 0 246.47 1270.98
  L 205.99 1271.22"
/>
<path stroke="#9e4311" vector-effect="non-scaling-stroke" d="
  M 205.99 1271.22
  Q 205.76 1271.18 205.60 1271.04
  A 0.14 0.12 64.0 0 0 205.51 1271.00
  L 165.25 1271.00
  A 0.25 0.25 0.0 0 0 165.00 1271.25
  L 165.00 1331.18
  A 0.81 0.80 -0.0 0 0 165.81 1331.98
  L 206.01 1331.99"
/>
<path stroke="#8d380a" vector-effect="non-scaling-stroke" d="
  M 205.99 1271.22
  L 206.01 1331.99"
/>
<path stroke="#6d2a07" vector-effect="non-scaling-stroke" d="
  M 165.00 1332.40
  A 0.40 0.40 0.0 0 0 164.60 1332.00
  L 124.40 1332.00
  A 0.40 0.40 0.0 0 0 124.00 1332.40
  L 124.00 1391.60
  A 0.40 0.40 0.0 0 0 124.40 1392.00
  L 164.60 1392.00
  A 0.40 0.40 0.0 0 0 165.00 1391.60
  L 165.00 1332.40"
/>
<path stroke="#9e4311" vector-effect="non-scaling-stroke" d="
  M 124.01 1392.54
  A 0.55 0.55 0.0 0 0 123.46 1391.99
  L 83.54 1391.99
  A 0.55 0.55 0.0 0 0 82.99 1392.54
  L 82.99 1452.46
  A 0.55 0.55 0.0 0 0 83.54 1453.01
  L 123.46 1453.01
  A 0.55 0.55 0.0 0 0 124.01 1452.46
  L 124.01 1392.54"
/>
<path stroke="#8d380a" vector-effect="non-scaling-stroke" d="
  M 206.00 1149.97
  L 206.04 1089.97"
/>
<path stroke="#8d380a" vector-effect="non-scaling-stroke" d="
  M 41.00 1211.22
  L 41.01 1270.97"
/>
<path stroke="#8d380a" vector-effect="non-scaling-stroke" d="
  M 41.03 1392.02
  L 0.00 1391.97"
/>
<path stroke="#8d380a" vector-effect="non-scaling-stroke" d="
  M 330.00 1392.01
  L 289.00 1392.01"
/>
<path stroke="#8d380a" vector-effect="non-scaling-stroke" d="
  M 247.21 1512.79
  Q 247.51 1513.69 247.00 1513.01"
/>
</g>
<path fill="#4ea72e" d="
  M 82.87 1.01
  L 82.97 61.00
  L 83.00 121.22
  A 0.78 0.78 0.0 0 0 83.78 122.00
  L 123.27 121.99
  A 0.72 0.72 0.0 0 0 123.99 121.27
  L 123.76 61.01
  L 124.00 1.01
  L 164.98 1.01
  L 165.00 60.47
  A 0.53 0.52 90.0 0 0 165.52 61.00
  L 206.00 61.02
  L 246.60 60.99
  A 0.40 0.40 0.0 0 0 247.00 60.59
  L 247.02 1.02
  L 330.00 1.04
  L 330.00 243.01
  L 289.46 243.02
  A 0.46 0.46 0.0 0 0 289.00 243.48
  L 289.00 302.49
  A 0.48 0.47 90.0 0 0 289.47 302.97
  L 330.00 302.94
  L 330.00 423.95
  L 289.66 423.98
  A 0.65 0.64 0.0 0 0 289.01 424.62
  L 289.04 484.98
  L 206.03 484.99
  L 206.01 424.47
  Q 206.01 424.01 205.55 424.01
  L 165.76 424.00
  A 0.73 0.73 0.0 0 0 165.03 424.73
  L 164.71 484.99
  L 0.00 484.99
  L 0.00 302.98
  L 40.68 302.99
  A 0.29 0.29 0.0 0 0 40.97 302.70
  L 41.20 243.00
  L 83.00 243.01
  L 124.00 242.79
  L 164.72 242.98
  A 0.27 0.27 0.0 0 0 165.00 242.71
  L 165.00 182.29
  A 0.26 0.26 0.0 0 0 164.74 182.03
  L 124.00 182.06
  L 83.00 182.02
  L 41.56 182.03
  A 0.57 0.56 0.0 0 0 40.99 182.59
  L 40.99 242.93
  L 0.00 242.93
  L 0.00 121.96
  L 40.20 122.00
  Q 40.99 122.00 40.99 121.22
  L 41.00 61.53
  A 0.54 0.54 0.0 0 0 40.46 60.99
  L 0.00 60.92
  L 0.00 1.73
  Q 0.90 1.02 3.00 1.01
  Q 42.73 0.98 82.87 1.01
  Z
  M 288.9380 61.6335
  A 0.67 0.67 0.0 0 0 288.2668 60.9646
  L 247.6869 61.0355
  A 0.67 0.67 0.0 0 0 247.0180 61.7066
  L 247.1220 121.3065
  A 0.67 0.67 0.0 0 0 247.7932 121.9754
  L 288.3731 121.9045
  A 0.67 0.67 0.0 0 0 289.0420 121.2334
  L 288.9380 61.6335
  Z
  M 205.94 122.70
  A 0.68 0.68 0.0 0 0 205.26 122.02
  L 165.68 122.02
  A 0.68 0.68 0.0 0 0 165.00 122.70
  L 165.00 181.32
  A 0.68 0.68 0.0 0 0 165.68 182.00
  L 205.26 182.00
  A 0.68 0.68 0.0 0 0 205.94 181.32
  L 205.94 122.70
  Z
  M 289.00 182.54
  A 0.54 0.54 0.0 0 0 288.46 182.00
  L 247.54 182.00
  A 0.54 0.54 0.0 0 0 247.00 182.54
  L 247.00 242.46
  A 0.54 0.54 0.0 0 0 247.54 243.00
  L 288.46 243.00
  A 0.54 0.54 0.0 0 0 289.00 242.46
  L 289.00 182.54
  Z
  M 205.98 243.62
  A 0.62 0.62 0.0 0 0 205.36 243.00
  L 165.62 243.00
  A 0.62 0.62 0.0 0 0 165.00 243.62
  L 165.00 302.38
  A 0.62 0.62 0.0 0 0 165.62 303.00
  L 205.36 303.00
  A 0.62 0.62 0.0 0 0 205.98 302.38
  L 205.98 243.62
  Z
  M 83.00 423.99
  L 123.74 423.99
  A 0.26 0.25 -0.0 0 0 124.00 423.74
  L 124.00 364.51
  A 0.51 0.51 0.0 0 0 123.49 364.00
  L 83.00 364.22
  L 41.50 364.01
  A 0.50 0.50 0.0 0 0 41.00 364.51
  L 41.00 423.27
  Q 41.00 423.99 41.72 423.99
  L 83.00 423.99
  Z
  M 247.00 364.68
  A 0.68 0.68 0.0 0 0 246.32 364.00
  L 206.66 364.00
  A 0.68 0.68 0.0 0 0 205.98 364.68
  L 205.98 423.32
  A 0.68 0.68 0.0 0 0 206.66 424.00
  L 246.32 424.00
  A 0.68 0.68 0.0 0 0 247.00 423.32
  L 247.00 364.68
  Z"
/>
<path fill="#3c7d22" d="
  M 82.87 1.01
  L 124.00 1.01
  L 123.76 61.01
  L 82.97 61.00
  L 82.87 1.01
  Z"
/>
<path fill="#8ed973" d="
  M 164.98 1.01
  L 205.97 1.01
  L 206.00 61.02
  L 165.52 61.00
  A 0.53 0.52 -90.0 0 1 165.00 60.47
  L 164.98 1.01
  Z"
/>
<path fill="#3c7d22" d="
  M 205.97 1.01
  L 247.02 1.02
  L 247.00 60.59
  A 0.40 0.40 0.0 0 1 246.60 60.99
  L 206.00 61.02
  L 205.97 1.01
  Z"
/>
<path fill="#3c7d22" d="
  M 0.00 60.92
  L 40.46 60.99
  A 0.54 0.54 0.0 0 1 41.00 61.53
  L 40.99 121.22
  Q 40.99 122.00 40.20 122.00
  L 0.00 121.96
  L 0.00 60.92
  Z"
/>
<path fill="#8ed973" d="
  M 82.97 61.00
  L 123.76 61.01
  L 123.99 121.27
  A 0.72 0.72 0.0 0 1 123.27 121.99
  L 83.78 122.00
  A 0.78 0.78 0.0 0 1 83.00 121.22
  L 82.97 61.00
  Z"
/>
<rect fill="#3c7d22" x="-20.96" y="-30.47" transform="translate(268.03,91.47) rotate(-0.1)" width="41.92" height="60.94" rx="0.67"/>
<rect fill="#3c7d22" x="165.00" y="122.02" width="40.94" height="59.98" rx="0.68"/>
<path fill="#8ed973" d="
  M 83.00 182.02
  L 83.00 243.01
  L 41.20 243.00
  Q 40.97 243.00 40.99 242.93
  L 40.99 182.59
  A 0.57 0.56 0.0 0 1 41.56 182.03
  L 83.00 182.02
  Z"
/>
<path fill="#3c7d22" d="
  M 124.00 182.06
  L 124.00 242.79
  L 83.00 243.01
  L 83.00 182.02
  L 124.00 182.06
  Z"
/>
<path fill="#8ed973" d="
  M 124.00 242.79
  L 124.00 182.06
  L 164.74 182.03
  A 0.26 0.26 0.0 0 1 165.00 182.29
  L 165.00 242.71
  A 0.27 0.27 0.0 0 1 164.72 242.98
  L 124.00 242.79
  Z"
/>
<rect fill="#8ed973" x="247.00" y="182.00" width="42.00" height="61.00" rx="0.54"/>
<path fill="#3c7d22" d="
  M 40.99 242.93
  Q 40.97 243.00 41.20 243.00
  L 40.97 302.70
  A 0.29 0.29 0.0 0 1 40.68 302.99
  L 0.00 302.98
  L 0.00 242.93
  L 40.99 242.93
  Z"
/>
<rect fill="#3c7d22" x="165.00" y="243.00" width="40.98" height="60.00" rx="0.62"/>
<path fill="#3c7d22" d="
  M 330.00 243.01
  L 330.00 302.94
  L 289.47 302.97
  A 0.48 0.47 -90.0 0 1 289.00 302.49
  L 289.00 243.48
  A 0.46 0.46 0.0 0 1 289.46 243.02
  L 330.00 243.01
  Z"
/>
<path fill="#8ed973" d="
  M 83.00 364.22
  L 83.00 423.99
  L 41.72 423.99
  Q 41.00 423.99 41.00 423.27
  L 41.00 364.51
  A 0.50 0.50 0.0 0 1 41.50 364.01
  L 83.00 364.22
  Z"
/>
<path fill="#3c7d22" d="
  M 83.00 423.99
  L 83.00 364.22
  L 123.49 364.00
  A 0.51 0.51 0.0 0 1 124.00 364.51
  L 124.00 423.74
  A 0.26 0.25 -0.0 0 1 123.74 423.99
  L 83.00 423.99
  Z"
/>
<rect fill="#8ed973" x="205.98" y="364.00" width="41.02" height="60.00" rx="0.68"/>
<path fill="#3c7d22" d="
  M 206.03 484.99
  L 164.71 484.99
  L 165.03 424.73
  A 0.73 0.73 0.0 0 1 165.76 424.00
  L 205.55 424.01
  Q 206.01 424.01 206.01 424.47
  L 206.03 484.99
  Z"
/>
<path fill="#8ed973" d="
  M 330.00 423.95
  L 330.00 484.95
  L 289.04 484.98
  L 289.01 424.62
  A 0.65 0.64 0.0 0 1 289.66 423.98
  L 330.00 423.95
  Z"
/>
<path fill="#ffffff" d="
  M 330.00 484.95
  L 330.00 544.99
  L 206.09 544.99
  L 164.91 544.99
  L 0.00 544.98
  L 0.00 484.99
  L 164.71 484.99
  L 206.03 484.99
  L 289.04 484.98
  L 330.00 484.95
  Z"
/>
<path fill="#4ea72e" d="
  M 0.00 544.98
  L 164.91 544.99
  L 165.00 605.75
  A 0.27 0.27 0.0 0 0 165.27 606.02
  L 205.25 605.95
  A 0.68 0.68 0.0 0 0 205.93 605.27
  L 206.09 544.99
  L 330.00 544.99
  L 330.00 665.99
  L 289.78 666.04
  A 0.78 0.77 90.0 0 0 289.01 666.82
  L 288.99 727.01
  L 247.77 726.99
  A 0.76 0.75 -0.0 0 1 247.01 726.24
  L 247.01 666.52
  Q 247.01 666.02 246.50 666.01
  L 205.77 665.94
  L 165.88 666.05
  Q 165.02 666.05 165.02 666.91
  L 165.02 727.01
  L 124.28 727.00
  L 124.00 726.79
  L 123.99 666.28
  Q 124.34 665.53 124.02 665.91
  L 164.54 665.93
  Q 165.00 665.93 165.00 665.47
  L 165.00 606.28
  A 0.26 0.25 0.0 0 0 164.74 606.03
  L 124.01 606.06
  L 82.99 606.02
  L 41.66 606.03
  Q 40.99 606.03 40.99 606.70
  L 41.03 665.13
  A 0.81 0.80 90.0 0 0 41.83 665.94
  L 82.72 665.93
  Q 82.91 666.02 83.04 666.54
  L 83.01 726.28
  Q 83.11 726.57 82.99 727.00
  L 41.74 726.99
  A 0.75 0.74 90.0 0 1 41.00 726.24
  L 41.01 666.51
  A 0.49 0.49 0.0 0 0 40.52 666.02
  Q 22.52 665.93 4.77 666.07
  Q 2.32 666.09 0.00 665.62
  L 0.00 544.98
  Z
  M 289.00 606.67
  A 0.68 0.68 0.0 0 0 288.32 605.99
  L 247.68 605.99
  A 0.68 0.68 0.0 0 0 247.00 606.67
  L 247.00 665.31
  A 0.68 0.68 0.0 0 0 247.68 665.99
  L 288.32 665.99
  A 0.68 0.68 0.0 0 0 289.00 665.31
  L 289.00 606.67
  Z"
/>
<path fill="#3c7d22" d="
  M 164.91 544.99
  L 206.09 544.99
  L 205.93 605.27
  A 0.68 0.68 0.0 0 1 205.25 605.95
  L 165.27 606.02
  A 0.27 0.27 0.0 0 1 165.00 605.75
  L 164.91 544.99
  Z"
/>
<path fill="#8ed973" d="
  M 82.99 606.02
  L 82.94 665.71
  Q 82.94 665.75 82.91 665.77
  Q 82.81 665.85 82.72 665.93
  L 41.83 665.94
  A 0.81 0.80 90.0 0 1 41.03 665.13
  L 40.99 606.70
  Q 40.99 606.03 41.66 606.03
  L 82.99 606.02
  Z"
/>
<path fill="#3c7d22" d="
  M 124.01 606.06
  L 124.02 665.91
  Q 124.34 665.53 123.99 666.28
  Q 123.69 666.31 123.64 666.12
  Q 123.60 665.98 123.46 665.98
  L 84.38 666.00
  Q 83.94 666.00 83.56 666.23
  L 83.04 666.54
  Q 82.91 666.02 82.72 665.93
  Q 82.81 665.85 82.91 665.77
  Q 82.94 665.75 82.94 665.71
  L 82.99 606.02
  L 124.01 606.06
  Z"
/>
<path fill="#8ed973" d="
  M 124.02 665.91
  L 124.01 606.06
  L 164.74 606.03
  A 0.26 0.25 -0.0 0 1 165.00 606.28
  L 165.00 665.47
  Q 165.00 665.93 164.54 665.93
  L 124.02 665.91
  Z"
/>
<rect fill="#8ed973" x="247.00" y="605.99" width="42.00" height="60.00" rx="0.68"/>
<path fill="#3c7d22" d="
  M 0.00 665.62
  Q 2.32 666.09 4.77 666.07
  Q 22.52 665.93 40.52 666.02
  A 0.49 0.49 0.0 0 1 41.01 666.51
  L 41.00 726.24
  A 0.75 0.74 -90.0 0 0 41.74 726.99
  L 82.99 727.00
  L 82.98 787.02
  Q 83.00 786.98 83.01 786.95
  L 41.00 786.95
  L 40.97 728.08
  A 1.02 1.02 0.0 0 0 39.95 727.06
  L 0.00 726.99
  L 0.00 665.62
  Z"
/>
<path fill="#3c7d22" d="
  M 205.77 665.94
  L 206.01 727.00
  L 165.21 727.21
  Q 164.69 727.41 165.02 727.01
  L 165.02 666.91
  Q 165.02 666.05 165.88 666.05
  L 205.77 665.94
  Z"
/>
<path fill="#be5014" d="
  M 123.99 666.28
  L 124.00 726.79
  Q 123.78 726.80 123.60 726.85
  A 1.19 0.08 -15.2 0 1 122.75 727.02
  L 83.77 727.00
  Q 83.37 727.00 83.19 726.64
  L 83.01 726.28
  L 83.04 666.54
  L 83.56 666.23
  Q 83.94 666.00 84.38 666.00
  L 123.46 665.98
  Q 123.60 665.98 123.64 666.12
  Q 123.69 666.31 123.99 666.28
  Z"
/>
<path fill="#7e350e" d="
  M 205.77 665.94
  L 246.50 666.01
  Q 247.01 666.02 247.01 666.52
  L 247.01 726.24
  A 0.76 0.75 0.0 0 0 247.77 726.99
  L 288.99 727.01
  L 289.02 786.97
  L 289.02 847.61
  A 0.42 0.42 0.0 0 0 289.43 848.03
  L 330.00 848.04
  L 330.00 1029.01
  L 247.02 1029.00
  L 247.02 969.81
  A 0.79 0.79 0.0 0 0 246.22 969.02
  L 205.97 969.21
  L 166.03 969.01
  A 0.99 0.99 0.0 0 1 165.04 968.02
  L 165.04 908.52
  A 0.52 0.51 0.5 0 0 164.52 908.00
  L 124.50 908.00
  Q 124.00 908.00 124.00 908.50
  L 124.00 968.50
  A 0.50 0.50 0.0 0 0 124.50 969.00
  L 164.00 969.00
  A 1.01 1.01 0.0 0 1 165.01 970.01
  L 165.08 1028.99
  L 83.05 1028.99
  L 83.00 969.69
  A 0.66 0.66 0.0 0 0 82.34 969.03
  L 41.21 968.79
  L 40.97 908.57
  Q 40.97 907.98 40.37 907.98
  L 0.00 907.96
  L 0.00 847.94
  L 40.70 847.99
  A 0.31 0.30 -90.0 0 0 41.00 847.68
  L 41.00 786.95
  L 83.01 786.95
  L 83.00 847.74
  A 0.27 0.26 0.0 0 0 83.27 848.00
  L 123.73 848.01
  A 0.27 0.27 0.0 0 0 124.00 847.74
  L 124.00 787.02
  L 165.02 787.01
  L 205.05 787.06
  A 0.95 0.95 0.0 0 0 206.00 786.11
  L 206.01 727.00
  L 205.77 665.94
  Z
  M 246.99 907.99
  L 247.00 968.25
  A 0.76 0.75 90.0 0 0 247.75 969.01
  L 288.75 969.00
  A 0.25 0.25 0.0 0 0 289.00 968.75
  L 289.00 908.73
  Q 289.00 908.00 288.27 908.00
  L 246.99 907.99
  L 247.02 848.51
  A 0.52 0.51 -0.0 0 0 246.50 848.00
  L 206.49 848.00
  A 0.51 0.51 0.0 0 0 205.98 848.51
  L 205.96 907.45
  A 0.56 0.55 0.0 0 0 206.52 908.00
  L 246.99 907.99
  Z"
/>
<path fill="#3c7d22" d="
  M 330.00 665.99
  L 330.00 787.01
  L 289.02 786.97
  L 288.99 727.01
  L 289.01 666.82
  A 0.78 0.77 -90.0 0 1 289.78 666.04
  L 330.00 665.99
  Z"
/>
<path fill="#7e350e" d="
  M 83.01 726.28
  L 83.19 726.64
  Q 83.37 727.00 83.77 727.00
  L 122.75 727.02
  A 1.19 0.08 -15.2 0 0 123.60 726.85
  Q 123.78 726.80 124.00 726.79
  L 124.28 727.00
  Q 124.25 727.17 124.15 727.32
  Q 123.98 727.55 123.98 727.83
  L 123.98 787.02
  L 82.98 787.02
  L 82.99 727.00
  Q 83.11 726.57 83.01 726.28
  Z"
/>
<path fill="#be5014" d="
  M 0.00 726.99
  L 39.95 727.06
  A 1.02 1.02 0.0 0 1 40.97 728.08
  L 41.00 786.95
  L 0.00 786.95
  L 0.00 726.99
  Z"
/>
<path fill="#5c1f00" d="
  M 124.28 727.00
  L 165.02 727.01
  Q 164.69 727.41 165.21 727.21
  L 165.02 787.01
  L 124.00 787.02
  Q 123.99 787.02 123.98 787.02
  L 123.98 727.83
  Q 123.98 727.55 124.15 727.32
  Q 124.25 727.17 124.28 727.00
  Z"
/>
<path fill="#275317" d="
  M 206.01 727.00
  L 206.00 786.11
  A 0.95 0.95 0.0 0 1 205.05 787.06
  L 165.02 787.01
  L 165.21 727.21
  L 206.01 727.00
  Z"
/>
<path fill="#5c1f00" d="
  M 289.02 786.97
  L 330.00 787.01
  L 330.00 848.04
  L 289.43 848.03
  A 0.42 0.42 0.0 0 1 289.02 847.61
  L 289.02 786.97
  Z"
/>
<path fill="#5c1f00" d="
  M 0.00 786.95
  L 41.00 786.95
  L 41.00 847.68
  A 0.31 0.30 90.0 0 1 40.70 847.99
  L 0.00 847.94
  L 0.00 786.95
  Z"
/>
<path fill="#be5014" d="
  M 83.01 786.95
  Q 83.00 786.98 82.98 787.02
  L 123.98 787.02
  Q 123.99 787.02 124.00 787.02
  L 124.00 847.74
  A 0.27 0.27 0.0 0 1 123.73 848.01
  L 83.27 848.00
  A 0.27 0.26 -0.0 0 1 83.00 847.74
  L 83.01 786.95
  Z"
/>
<path fill="#be5014" d="
  M 246.99 907.99
  L 206.52 908.00
  A 0.56 0.55 0.0 0 1 205.96 907.45
  L 205.98 848.51
  A 0.51 0.51 0.0 0 1 206.49 848.00
  L 246.50 848.00
  A 0.52 0.51 0.0 0 1 247.02 848.51
  L 246.99 907.99
  Z"
/>
<path fill="#5c1f00" d="
  M 246.99 907.99
  L 288.27 908.00
  Q 289.00 908.00 289.00 908.73
  L 289.00 968.75
  A 0.25 0.25 0.0 0 1 288.75 969.00
  L 247.75 969.01
  A 0.76 0.75 90.0 0 1 247.00 968.25
  L 246.99 907.99
  Z"
/>
<path fill="#be5014" d="
  M 0.00 907.96
  L 40.37 907.98
  Q 40.97 907.98 40.97 908.57
  L 41.21 968.79
  Q 41.48 969.79 40.99 968.99
  L 0.00 968.90
  L 0.00 907.96
  Z"
/>
<path fill="#be5014" d="
  M 205.97 969.21
  L 205.79 1029.00
  L 165.08 1028.99
  L 165.01 970.01
  A 1.01 1.01 0.0 0 0 164.00 969.00
  L 124.50 969.00
  A 0.50 0.50 0.0 0 1 124.00 968.50
  L 124.00 908.50
  Q 124.00 908.00 124.50 908.00
  L 164.52 908.00
  A 0.52 0.51 0.5 0 1 165.04 908.52
  L 165.04 968.02
  A 0.99 0.99 0.0 0 0 166.03 969.01
  L 205.97 969.21
  Z"
/>
<path fill="#7e350e" d="
  M 0.00 968.90
  L 40.99 968.99
  L 40.98 1029.00
  L 0.00 1029.00
  L 0.00 968.90
  Z"
/>
<path fill="#5c1f00" d="
  M 41.21 968.79
  L 82.34 969.03
  A 0.66 0.66 0.0 0 1 83.00 969.69
  L 83.05 1028.99
  L 40.98 1029.00
  L 40.99 968.99
  Q 41.48 969.79 41.21 968.79
  Z"
/>
<path fill="#5c1f00" d="
  M 247.02 1029.00
  L 205.79 1029.00
  L 205.97 969.21
  L 246.22 969.02
  A 0.79 0.79 0.0 0 1 247.02 969.81
  L 247.02 1029.00
  Z"
/>
<path fill="#ffffff" d="
  M 0.00 1029.00
  L 40.98 1029.00
  L 83.05 1028.99
  L 165.08 1028.99
  L 205.79 1029.00
  L 247.02 1029.00
  L 330.00 1029.01
  L 330.00 1089.97
  L 246.97 1089.99
  L 206.04 1089.97
  L 164.94 1089.98
  L 0.00 1089.94
  L 0.00 1029.00
  Z"
/>
<path fill="#7e350e" d="
  M 0.00 1089.94
  L 164.94 1089.98
  L 164.99 1149.61
  A 0.43 0.43 0.0 0 0 165.42 1150.04
  L 206.00 1149.97
  L 245.76 1149.98
  Q 247.00 1149.98 247.00 1151.23
  L 247.00 1210.70
  A 0.30 0.30 0.0 0 0 247.30 1211.00
  L 288.55 1211.01
  A 0.56 0.55 -90.0 0 0 289.10 1210.45
  L 289.02 1150.50
  A 0.52 0.52 0.0 0 0 288.50 1149.98
  L 248.23 1149.98
  A 1.20 1.19 0.0 0 1 247.03 1148.79
  L 246.97 1089.99
  L 330.00 1089.97
  L 330.00 1331.91
  L 289.55 1331.97
  Q 289.00 1331.97 289.00 1332.51
  L 289.00 1392.01
  L 289.00 1452.43
  Q 289.00 1453.01 289.58 1453.01
  L 330.00 1453.06
  L 330.00 1574.00
  L 288.95 1574.00
  L 288.98 1513.30
  A 0.29 0.29 0.0 0 0 288.69 1513.00
  L 248.02 1513.00
  Q 247.80 1513.00 247.61 1512.89
  Q 247.44 1512.80 247.21 1512.79
  L 246.99 1453.49
  A 0.49 0.49 0.0 0 0 246.50 1453.00
  L 206.49 1453.00
  Q 205.97 1453.00 205.97 1453.51
  L 205.95 1512.20
  A 0.81 0.81 0.0 0 0 206.76 1513.01
  L 247.00 1513.01
  L 247.00 1574.00
  L 165.07 1574.00
  L 165.02 1513.49
  A 0.49 0.49 0.0 0 0 164.53 1513.00
  L 124.48 1513.00
  A 0.49 0.48 -0.0 0 0 123.99 1513.48
  L 123.99 1574.00
  L 41.06 1574.00
  L 41.02 1513.59
  A 0.61 0.60 90.0 0 0 40.42 1512.98
  L 0.00 1512.97
  L 0.00 1452.99
  L 40.69 1452.99
  A 0.31 0.31 0.0 0 0 41.00 1452.68
  L 41.03 1392.02
  L 40.98 1332.29
  A 0.31 0.31 0.0 0 0 40.67 1331.98
  L 0.00 1331.89
  L 0.00 1270.88
  L 41.01 1270.97
  L 82.76 1270.98
  A 0.25 0.25 0.0 0 0 83.01 1270.73
  L 83.00 1211.52
  Q 83.00 1211.00 82.48 1211.00
  Q 62.15 1211.01 41.75 1210.99
  Q 41.50 1210.69 41.00 1211.22
  L 0.00 1210.96
  L 0.00 1089.94
  Z
  M 124.01 1150.67
  A 0.69 0.69 0.0 0 0 123.32 1149.98
  L 83.70 1149.98
  A 0.69 0.69 0.0 0 0 83.01 1150.67
  L 83.01 1210.31
  A 0.69 0.69 0.0 0 0 83.70 1211.00
  L 123.32 1211.00
  A 0.69 0.69 0.0 0 0 124.01 1210.31
  L 124.01 1150.67
  Z
  M 206.01 1331.99
  L 246.74 1331.99
  A 0.26 0.26 0.0 0 0 247.00 1331.73
  L 247.00 1271.50
  A 0.53 0.52 0.0 0 0 246.47 1270.98
  L 205.99 1271.22
  Q 205.76 1271.18 205.60 1271.04
  A 0.14 0.12 64.0 0 0 205.51 1271.00
  L 165.25 1271.00
  A 0.25 0.25 0.0 0 0 165.00 1271.25
  L 165.00 1331.18
  A 0.81 0.80 -0.0 0 0 165.81 1331.98
  L 206.01 1331.99
  Z
  M 165.00 1332.40
  A 0.40 0.40 0.0 0 0 164.60 1332.00
  L 124.40 1332.00
  A 0.40 0.40 0.0 0 0 124.00 1332.40
  L 124.00 1391.60
  A 0.40 0.40 0.0 0 0 124.40 1392.00
  L 164.60 1392.00
  A 0.40 0.40 0.0 0 0 165.00 1391.60
  L 165.00 1332.40
  Z
  M 124.01 1392.54
  A 0.55 0.55 0.0 0 0 123.46 1391.99
  L 83.54 1391.99
  A 0.55 0.55 0.0 0 0 82.99 1392.54
  L 82.99 1452.46
  A 0.55 0.55 0.0 0 0 83.54 1453.01
  L 123.46 1453.01
  A 0.55 0.55 0.0 0 0 124.01 1452.46
  L 124.01 1392.54
  Z"
/>
<path fill="#be5014" d="
  M 246.97 1089.99
  L 247.03 1148.79
  A 1.20 1.19 0.0 0 0 248.23 1149.98
  L 288.50 1149.98
  A 0.52 0.52 0.0 0 1 289.02 1150.50
  L 289.10 1210.45
  A 0.56 0.55 -90.0 0 1 288.55 1211.01
  L 247.30 1211.00
  A 0.30 0.30 0.0 0 1 247.00 1210.70
  L 247.00 1151.23
  Q 247.00 1149.98 245.76 1149.98
  L 206.00 1149.97
  L 206.04 1089.97
  L 246.97 1089.99
  Z"
/>
<path fill="#5c1f00" d="
  M 164.94 1089.98
  L 206.04 1089.97
  L 206.00 1149.97
  L 165.42 1150.04
  A 0.43 0.43 0.0 0 1 164.99 1149.61
  L 164.94 1089.98
  Z"
/>
<rect fill="#be5014" x="83.01" y="1149.98" width="41.00" height="61.02" rx="0.69"/>
<path fill="#be5014" d="
  M 0.00 1210.96
  L 41.00 1211.22
  L 41.01 1270.97
  L 0.00 1270.88
  L 0.00 1210.96
  Z"
/>
<path fill="#5c1f00" d="
  M 41.01 1270.97
  L 41.00 1211.22
  Q 41.50 1210.69 41.75 1210.99
  Q 62.15 1211.01 82.48 1211.00
  Q 83.00 1211.00 83.00 1211.52
  L 83.01 1270.73
  A 0.25 0.25 0.0 0 1 82.76 1270.98
  L 41.01 1270.97
  Z"
/>
<path fill="#be5014" d="
  M 205.99 1271.22
  L 206.01 1331.99
  L 165.81 1331.98
  A 0.81 0.80 -0.0 0 1 165.00 1331.18
  L 165.00 1271.25
  A 0.25 0.25 0.0 0 1 165.25 1271.00
  L 205.51 1271.00
  A 0.14 0.12 64.0 0 1 205.60 1271.04
  Q 205.76 1271.18 205.99 1271.22
  Z"
/>
<path fill="#5c1f00" d="
  M 206.01 1331.99
  L 205.99 1271.22
  L 246.47 1270.98
  A 0.53 0.52 -0.0 0 1 247.00 1271.50
  L 247.00 1331.73
  A 0.26 0.26 0.0 0 1 246.74 1331.99
  L 206.01 1331.99
  Z"
/>
<path fill="#be5014" d="
  M 0.00 1331.89
  L 40.67 1331.98
  A 0.31 0.31 0.0 0 1 40.98 1332.29
  L 41.03 1392.02
  L 0.00 1391.97
  L 0.00 1331.89
  Z"
/>
<path fill="#be5014" d="
  M 330.00 1331.91
  L 330.00 1392.01
  L 289.00 1392.01
  L 289.00 1332.51
  Q 289.00 1331.97 289.55 1331.97
  L 330.00 1331.91
  Z"
/>
<rect fill="#5c1f00" x="124.00" y="1332.00" width="41.00" height="60.00" rx="0.40"/>
<path fill="#5c1f00" d="
  M 0.00 1391.97
  L 41.03 1392.02
  L 41.00 1452.68
  A 0.31 0.31 0.0 0 1 40.69 1452.99
  L 0.00 1452.99
  L 0.00 1391.97
  Z"
/>
<rect fill="#be5014" x="82.99" y="1391.99" width="41.02" height="61.02" rx="0.55"/>
<path fill="#5c1f00" d="
  M 289.00 1392.01
  L 330.00 1392.01
  L 330.00 1453.06
  L 289.58 1453.01
  Q 289.00 1453.01 289.00 1452.43
  L 289.00 1392.01
  Z"
/>
<path fill="#be5014" d="
  M 247.21 1512.79
  Q 247.51 1513.69 247.00 1513.01
  L 206.76 1513.01
  A 0.81 0.81 0.0 0 1 205.95 1512.20
  L 205.97 1453.51
  Q 205.97 1453.00 206.49 1453.00
  L 246.50 1453.00
  A 0.49 0.49 0.0 0 1 246.99 1453.49
  L 247.21 1512.79
  Z"
/>
<path fill="#5c1f00" d="
  M 247.21 1512.79
  Q 247.44 1512.80 247.61 1512.89
  Q 247.80 1513.00 248.02 1513.00
  L 288.69 1513.00
  A 0.29 0.29 0.0 0 1 288.98 1513.30
  L 288.95 1574.00
  L 247.00 1574.00
  L 247.00 1513.01
  Q 247.51 1513.69 247.21 1512.79
  Z"
/>
<path fill="#be5014" d="
  M 0.00 1512.97
  L 40.42 1512.98
  A 0.61 0.60 90.0 0 1 41.02 1513.59
  L 41.06 1574.00
  L 0.00 1574.00
  L 0.00 1512.97
  Z"
/>
<path fill="#be5014" d="
  M 165.07 1574.00
  L 123.99 1574.00
  L 123.99 1513.48
  A 0.49 0.48 -0.0 0 1 124.48 1513.00
  L 164.53 1513.00
  A 0.49 0.49 0.0 0 1 165.02 1513.49
  L 165.07 1574.00
  Z"
/>
</svg>
